<?xml version="1.0" standalone="no"?>
<!DOCTYPE svg PUBLIC "-//W3C//DTD SVG 20010904//EN"
 "http://www.w3.org/TR/2001/REC-SVG-20010904/DTD/svg10.dtd">
<svg version="1.0" xmlns="http://www.w3.org/2000/svg"
 width="1026.000000pt" height="1028.000000pt" viewBox="0 0 1026.000000 1028.000000"
 preserveAspectRatio="xMidYMid meet">
<metadata>
Created by potrace 1.16, written by Peter Selinger 2001-2019
</metadata>
<g transform="translate(0.000000,1028.000000) scale(0.100000,-0.100000)"
fill="#000000" stroke="none">
<path d="M0 5140 l0 -5140 5130 0 5130 0 0 5140 0 5140 -5130 0 -5130 0 0
-5140z m4010 5070 c0 -5 -4 -10 -10 -10 -5 0 -10 5 -10 10 0 6 5 10 10 10 6 0
10 -4 10 -10z m60 -5 c0 -8 -4 -15 -10 -15 -5 0 -10 7 -10 15 0 8 5 15 10 15
6 0 10 -7 10 -15z m-90 -20 c0 -8 -7 -15 -15 -15 -8 0 -15 7 -15 15 0 8 7 15
15 15 8 0 15 -7 15 -15z m160 -5 c0 -5 -4 -10 -10 -10 -5 0 -10 5 -10 10 0 6
5 10 10 10 6 0 10 -4 10 -10z m-3203 -22 c-3 -8 -6 -5 -6 6 -1 11 2 17 5 13 3
-3 4 -12 1 -19z m2903 7 c0 -8 -7 -15 -15 -15 -26 0 -18 20 13 29 1 1 2 -6 2
-14z m-50 -5 c0 -5 -4 -10 -10 -10 -5 0 -10 5 -10 10 0 6 5 10 10 10 6 0 10
-4 10 -10z m410 0 c0 -5 -4 -10 -10 -10 -15 0 -12 -29 5 -46 8 -9 15 -11 15
-5 0 6 5 11 10 11 6 0 10 -7 10 -16 0 -18 23 -44 40 -44 16 0 56 -43 64 -68 4
-12 12 -22 17 -22 5 0 9 -7 9 -16 0 -9 14 -29 30 -44 17 -15 30 -35 30 -44 0
-9 4 -16 9 -16 5 0 13 -10 17 -22 9 -28 49 -68 69 -68 8 0 15 -4 15 -10 0 -5
9 -10 20 -10 11 0 20 -4 20 -10 0 -5 7 -10 15 -10 8 0 15 5 15 10 0 6 9 10 20
10 11 0 20 5 20 10 0 6 9 10 19 10 11 0 23 9 26 20 3 11 15 20 26 20 14 0 19
7 19 25 0 16 6 25 16 25 26 0 74 59 74 91 0 16 5 29 10 29 6 0 10 -9 10 -20 0
-11 5 -20 10 -20 6 0 10 9 10 20 0 12 7 20 16 20 18 0 44 23 44 39 0 6 7 11
15 11 8 0 15 5 15 10 0 6 14 10 30 10 17 0 30 5 30 10 0 6 35 10 85 10 50 0
85 -4 85 -10 0 -5 11 -10 25 -10 14 0 25 -4 25 -10 0 -5 9 -10 20 -10 11 0 20
-5 20 -11 0 -11 25 -39 35 -39 4 0 13 7 21 15 9 8 20 15 25 15 16 0 10 -25
-11 -40 -11 -8 -20 -18 -20 -22 0 -4 9 -8 20 -8 11 0 20 -4 20 -10 0 -5 9 -10
20 -10 12 0 20 -7 20 -16 0 -15 23 -44 35 -44 8 0 35 -27 35 -35 0 -12 29 -35
44 -35 9 0 16 -4 16 -10 0 -5 7 -10 15 -10 8 0 15 -4 15 -10 0 -5 14 -10 30
-10 17 0 30 5 30 10 0 6 9 10 19 10 11 0 23 9 26 20 3 11 11 20 16 20 5 0 9 5
9 11 0 6 14 24 30 39 17 15 30 33 30 39 0 7 10 23 23 36 56 62 67 75 67 80 0
10 69 75 80 75 5 0 10 5 10 10 0 6 7 10 16 10 8 0 23 7 31 16 14 13 14 17 2
24 -7 5 -10 13 -5 17 5 4 11 2 13 -4 3 -9 31 -13 93 -13 61 0 90 4 94 13 5 10
7 10 12 0 4 -9 34 -13 100 -13 56 0 94 -4 94 -10 0 -5 20 -10 45 -10 25 0 45
-4 45 -10 0 -5 25 -10 55 -10 30 0 55 -4 55 -10 0 -6 40 -10 100 -10 93 0 100
1 100 20 0 11 5 20 10 20 6 0 10 -9 10 -20 0 -11 -4 -20 -10 -20 -5 0 -10 -4
-10 -10 0 -5 18 -10 40 -10 22 0 40 -4 40 -10 0 -5 7 -10 15 -10 8 0 15 -7 15
-15 0 -11 8 -13 30 -8 23 4 30 2 30 -11 0 -9 8 -16 20 -16 11 0 20 -4 20 -10
0 -5 7 -10 15 -10 8 0 15 -4 15 -10 0 -5 7 -10 16 -10 9 0 29 -13 44 -30 15
-16 33 -30 39 -30 6 0 11 -9 11 -20 0 -16 7 -20 30 -20 23 0 30 4 30 20 0 11
5 20 10 20 14 0 12 -37 -2 -44 -10 -5 -10 -7 0 -12 6 -3 12 -10 12 -16 0 -12
25 -38 37 -38 5 0 15 -9 23 -20 8 -11 22 -20 32 -20 11 0 18 7 18 20 0 11 5
20 10 20 14 0 12 -38 -2 -42 -8 -3 -3 -14 14 -31 33 -33 36 -33 59 -5 11 11
22 18 26 15 3 -4 -4 -16 -17 -27 l-23 -20 21 -19 c12 -10 22 -23 22 -30 0 -6
5 -11 10 -11 6 0 10 -9 10 -20 0 -13 7 -20 20 -20 11 0 20 -4 20 -10 0 -5 25
-34 55 -65 30 -30 55 -59 55 -65 0 -5 7 -10 15 -10 8 0 15 -7 15 -15 0 -14 82
-105 95 -105 10 0 55 -49 55 -60 0 -5 5 -10 10 -10 6 0 10 -7 10 -16 0 -9 13
-29 30 -44 16 -15 30 -35 30 -44 0 -11 9 -16 31 -16 30 0 59 -19 59 -39 0 -6
-4 -11 -10 -11 -5 0 -10 5 -10 10 0 6 -9 10 -20 10 -27 0 -26 -5 15 -45 40
-41 45 -42 45 -12 1 21 1 21 12 3 8 -15 8 -21 0 -24 -20 -6 -13 -20 33 -66 25
-25 45 -53 45 -61 0 -15 6 -25 38 -60 6 -7 12 -21 12 -29 0 -9 8 -16 20 -16
13 0 20 -7 20 -20 0 -11 5 -20 10 -20 14 0 12 -37 -2 -44 -7 -3 -3 -3 10 0 18
4 22 1 22 -18 0 -13 9 -30 20 -38 11 -8 20 -22 20 -32 0 -9 16 -33 35 -52 19
-20 35 -42 35 -51 0 -9 11 -27 25 -41 14 -14 25 -34 25 -44 0 -13 7 -20 20
-20 13 0 20 -7 20 -20 0 -11 5 -20 10 -20 6 0 10 -9 10 -20 0 -11 5 -20 10
-20 6 0 10 -5 10 -10 0 -6 10 -22 23 -35 38 -42 47 -54 47 -67 0 -8 9 -20 20
-28 13 -9 20 -26 20 -47 0 -18 5 -33 10 -33 6 0 10 -9 10 -20 0 -11 4 -20 10
-20 5 0 13 -12 16 -27 4 -16 20 -40 36 -55 15 -14 28 -34 28 -45 0 -10 9 -25
20 -33 11 -8 20 -22 20 -32 0 -10 4 -18 10 -18 5 0 13 -12 16 -27 4 -16 15
-35 26 -44 10 -9 18 -25 18 -35 0 -11 9 -26 20 -34 11 -8 20 -22 20 -32 0 -10
5 -18 10 -18 6 0 10 -9 10 -20 0 -11 5 -20 10 -20 6 0 10 -9 10 -19 0 -11 7
-26 15 -35 8 -8 15 -24 15 -35 0 -12 5 -21 10 -21 6 0 10 -17 10 -38 0 -26 6
-42 20 -52 11 -8 20 -22 20 -32 0 -10 4 -18 9 -18 4 0 11 -24 14 -52 4 -29 11
-54 17 -56 5 -2 10 -12 10 -23 0 -10 5 -19 10 -19 6 0 10 -16 10 -35 0 -19 5
-35 10 -35 6 0 10 -9 10 -20 0 -11 5 -20 10 -20 6 0 10 -9 10 -20 0 -11 5 -20
10 -20 6 0 10 -13 10 -30 0 -16 4 -30 9 -30 4 0 11 -33 15 -72 4 -40 11 -74
16 -76 6 -2 10 -17 10 -33 0 -16 5 -29 10 -29 6 0 10 -28 10 -65 0 -37 4 -65
10 -65 6 0 10 -20 10 -45 0 -25 5 -45 10 -45 6 0 10 -26 10 -59 0 -38 4 -61
12 -63 10 -4 12 -91 12 -368 0 -277 -2 -364 -12 -368 -8 -2 -12 -26 -12 -68 0
-36 -4 -64 -10 -64 -5 0 -10 -22 -10 -50 0 -27 -4 -50 -10 -50 -6 0 -10 -28
-10 -65 0 -37 -4 -65 -10 -65 -5 0 -10 -18 -10 -39 0 -22 -4 -41 -10 -43 -5
-1 -12 -40 -16 -85 -4 -46 -11 -83 -15 -83 -5 0 -9 -11 -9 -25 0 -14 -4 -25
-10 -25 -5 0 -10 -9 -10 -20 0 -11 -4 -20 -10 -20 -5 0 -10 -13 -10 -30 0 -16
-4 -30 -10 -30 -5 0 -10 -20 -10 -45 0 -25 -4 -45 -10 -45 -5 0 -10 -9 -10
-20 0 -11 -4 -20 -10 -20 -5 0 -12 -22 -16 -50 -4 -27 -10 -50 -15 -50 -5 0
-9 -7 -9 -15 0 -8 -4 -15 -10 -15 -5 0 -10 -9 -10 -20 0 -11 -4 -20 -10 -20
-5 0 -10 -18 -10 -40 0 -22 -4 -40 -10 -40 -5 0 -10 -9 -10 -19 0 -11 -5 -21
-10 -23 -6 -2 -13 -21 -17 -43 -3 -22 -14 -47 -25 -56 -10 -9 -18 -24 -18 -33
0 -9 -4 -16 -10 -16 -5 0 -10 -9 -10 -20 0 -11 -4 -20 -10 -20 -5 0 -10 -7
-10 -15 0 -8 -4 -15 -10 -15 -5 0 -10 -9 -10 -20 0 -11 -4 -20 -10 -20 -5 0
-13 -12 -16 -28 -4 -15 -15 -34 -26 -43 -10 -9 -18 -24 -18 -33 0 -9 -4 -16
-10 -16 -5 0 -10 -6 -10 -13 0 -7 -9 -19 -20 -27 -11 -8 -20 -20 -20 -28 0
-13 -9 -25 -47 -67 -13 -13 -23 -36 -23 -51 0 -16 -11 -37 -30 -54 -16 -15
-30 -35 -30 -44 0 -8 -16 -31 -35 -50 -19 -20 -35 -42 -35 -51 0 -9 -15 -31
-32 -49 -18 -18 -40 -43 -48 -55 -8 -11 -22 -21 -32 -21 -10 0 -18 -7 -18 -16
0 -9 -8 -24 -19 -33 -10 -9 -21 -26 -25 -38 -4 -13 -12 -23 -17 -23 -5 0 -9
-8 -9 -18 0 -10 -9 -24 -20 -32 -16 -11 -20 -26 -20 -67 0 -29 -4 -53 -10 -53
-5 0 -10 -22 -10 -50 0 -27 5 -50 10 -50 6 0 10 -18 10 -40 0 -30 7 -47 25
-65 13 -14 29 -25 35 -25 5 0 10 -4 10 -10 0 -5 9 -10 20 -10 11 0 20 -4 20
-10 0 -5 9 -10 20 -10 11 0 20 -4 20 -10 0 -5 7 -10 15 -10 8 0 15 -4 15 -10
0 -5 18 -10 40 -10 22 0 40 -4 40 -10 0 -5 11 -10 25 -10 14 0 25 -4 25 -10 0
-5 9 -10 20 -10 11 0 20 5 20 10 0 6 9 10 20 10 11 0 20 -7 20 -15 0 -8 -9
-15 -20 -15 -11 0 -20 -4 -20 -10 0 -5 14 -10 30 -10 17 0 30 -4 30 -10 0 -5
11 -10 25 -10 14 0 25 -4 25 -10 0 -5 9 -10 20 -10 11 0 20 -4 20 -10 0 -5 11
-10 25 -10 14 0 25 -4 25 -10 0 -5 18 -10 40 -10 33 0 40 3 40 20 0 11 5 20
10 20 6 0 10 -9 10 -20 0 -11 -4 -20 -10 -20 -5 0 -10 -4 -10 -10 0 -5 9 -10
20 -10 11 0 20 -4 20 -10 0 -5 11 -10 25 -10 14 0 25 -4 25 -10 0 -5 9 -10 20
-10 11 0 20 5 20 10 0 6 5 10 10 10 6 0 10 -9 10 -20 0 -11 7 -20 15 -20 8 0
15 -7 15 -15 0 -8 9 -15 20 -15 11 0 20 -4 20 -10 0 -5 9 -10 20 -10 11 0 20
-4 20 -10 0 -5 7 -10 15 -10 8 0 15 -4 15 -10 0 -5 5 -10 10 -10 6 0 10 14 10
30 0 17 5 30 10 30 6 0 10 -16 10 -35 0 -27 8 -44 34 -70 19 -18 37 -39 40
-47 5 -10 7 -10 12 0 7 14 44 16 44 2 0 -5 -3 -10 -7 -10 -5 0 -14 -4 -22 -9
-12 -8 -11 -12 3 -27 14 -14 19 -15 26 -4 6 10 14 6 35 -14 15 -15 24 -30 20
-34 -4 -4 -10 -1 -12 6 -8 21 -43 14 -43 -8 0 -11 5 -20 10 -20 6 0 10 -9 10
-20 0 -11 5 -20 10 -20 6 0 10 9 10 20 0 11 5 20 10 20 6 0 10 -9 10 -20 0
-11 -4 -20 -10 -20 -5 0 -10 -9 -10 -20 0 -11 5 -20 10 -20 6 0 10 -50 10
-130 0 -80 -4 -130 -10 -130 -5 0 -10 -9 -10 -20 0 -11 -4 -20 -10 -20 -5 0
-10 -9 -10 -20 0 -11 -4 -20 -10 -20 -5 0 -10 -16 -10 -35 0 -19 -4 -35 -10
-35 -5 0 -10 -9 -10 -20 0 -11 5 -20 10 -20 6 0 10 -4 10 -10 0 -5 -13 -10
-29 -10 -21 0 -32 -6 -36 -20 -3 -11 -14 -20 -23 -20 -10 0 -24 -9 -32 -20
-17 -24 -36 -26 -44 -4 -9 25 -7 64 4 64 6 0 10 14 10 30 0 20 -5 30 -15 30
-8 0 -15 3 -16 8 0 4 -2 34 -5 67 -2 33 -6 88 -10 123 -7 78 -3 78 -149 -9
-59 -35 -39 -14 30 32 38 25 65 50 65 60 0 13 -63 42 -262 123 -145 58 -418
168 -608 244 -190 77 -369 151 -397 166 -48 24 -53 29 -52 59 1 17 5 46 10 62
6 24 7 20 3 -16 -5 -50 3 -62 48 -73 26 -6 27 -5 33 57 3 34 7 123 9 198 l2
137 -23 -67 c-13 -36 -33 -97 -44 -136 -22 -81 -20 -55 11 103 11 62 20 123
18 134 -2 17 -20 27 -88 48 -149 47 -161 57 -114 101 51 46 104 121 104 145 0
34 -37 47 -140 48 -94 1 -147 -11 -264 -61 -43 -18 -81 -31 -84 -28 -3 3 -1
20 6 38 6 18 16 67 22 110 19 133 -19 347 -62 355 -33 6 -138 -190 -199 -373
-23 -68 -42 -110 -50 -110 -9 0 -20 24 -29 62 -9 34 -19 65 -23 69 -4 4 -33
-18 -65 -48 -61 -58 -100 -74 -152 -63 -59 13 -65 3 154 260 392 462 555 753
681 1213 70 253 105 540 105 862 0 474 -80 884 -252 1295 -63 152 -85 193
-171 335 -140 232 -342 492 -473 609 -64 57 -158 108 -216 117 -45 8 -97 -21
-127 -70 -44 -71 -19 -231 44 -272 26 -17 101 -16 237 2 l48 7 108 -109 c158
-158 368 -447 462 -634 135 -268 209 -516 254 -850 18 -134 34 -412 30 -520
-9 -223 -15 -331 -24 -390 -5 -36 -14 -103 -20 -150 -18 -133 -75 -345 -130
-479 -59 -146 -115 -251 -135 -251 -21 0 -19 13 10 70 60 118 119 345 149 570
68 510 37 1057 -83 1455 -70 233 -101 302 -169 378 -30 32 -40 37 -77 37 -51
0 -100 -35 -121 -87 -16 -38 -18 -136 -4 -164 14 -24 68 -52 147 -74 55 -15
66 -23 92 -62 43 -65 99 -213 126 -333 42 -183 57 -345 57 -590 -1 -528 -92
-932 -312 -1387 -70 -147 -196 -365 -282 -490 -67 -97 -192 -215 -252 -238
-61 -23 -203 -17 -411 19 -334 57 -579 76 -990 76 -264 0 -508 -11 -775 -36
-175 -15 -529 -60 -563 -70 -12 -4 -40 16 -93 68 -331 319 -608 824 -723 1319
-30 127 -59 342 -71 529 -25 351 21 729 115 956 39 95 53 120 103 182 29 37
38 42 74 42 86 0 143 65 143 165 0 107 -77 197 -155 180 -36 -8 -101 -77 -136
-147 -75 -147 -150 -429 -191 -718 -21 -155 -25 -679 -5 -830 40 -299 80 -492
136 -657 36 -107 13 -101 -39 9 -234 501 -301 1252 -164 1837 70 301 165 523
377 881 172 292 244 380 367 450 77 44 80 36 6 -11 -126 -80 -195 -164 -344
-421 -46 -79 -95 -161 -109 -184 -64 -100 -165 -330 -212 -481 -81 -257 -106
-393 -111 -598 -4 -160 4 -152 25 25 16 133 68 354 70 296 0 -11 3 -16 7 -12
4 4 6 24 5 44 -2 28 0 33 7 22 8 -12 11 -8 11 17 0 17 5 35 10 38 6 3 10 17
10 30 0 13 3 25 8 27 4 2 18 35 30 73 42 127 107 247 166 311 31 32 56 63 56
69 0 8 38 58 67 88 5 4 16 15 25 25 68 68 88 92 88 100 0 6 14 16 30 24 17 7
33 21 36 30 3 10 11 18 17 18 7 0 18 9 25 20 7 11 20 20 29 20 24 0 83 23 83
32 0 14 148 10 153 -4 3 -10 15 -9 51 4 65 24 100 55 127 111 12 26 26 47 30
47 10 0 28 147 32 258 2 50 0 92 -5 92 -4 0 -19 -18 -32 -39 -24 -38 -61 -71
-79 -71 -5 0 5 11 22 25 45 39 65 101 58 186 -7 88 -29 127 -87 157 -49 25
-97 24 -150 -3 -37 -19 -196 -177 -286 -285 -253 -301 -488 -731 -599 -1095
-96 -316 -136 -599 -137 -960 -1 -559 91 -941 345 -1435 51 -99 162 -270 295
-451 75 -104 95 -129 235 -306 37 -47 67 -93 67 -102 0 -69 -129 -45 -205 39
-32 35 -52 26 -59 -28 -7 -55 -31 -94 -54 -90 -11 2 -20 30 -33 106 -28 168
-78 272 -166 346 -28 23 -33 25 -46 11 -23 -22 -47 -144 -47 -232 1 -68 10
-132 36 -235 6 -28 -8 -39 -21 -18 -12 19 -124 70 -187 85 -63 15 -197 18
-253 6 -17 -3 -31 -14 -33 -23 -2 -9 19 -47 47 -83 52 -68 70 -110 54 -126 -4
-4 -56 -23 -113 -40 -58 -17 -111 -38 -119 -45 -13 -11 -10 -35 19 -169 18
-85 31 -158 28 -161 -3 -2 -11 24 -17 58 -20 100 -41 170 -67 214 -12 22 -22
50 -21 62 0 12 3 19 5 17 2 -2 19 7 38 20 21 14 58 26 92 31 123 14 137 18
140 40 2 14 -21 51 -63 105 l-67 83 21 18 c30 23 95 31 204 24 157 -10 213
-21 248 -50 17 -15 33 -25 36 -23 2 3 -3 32 -11 65 -9 33 -16 96 -16 141 0 45
-4 81 -9 81 -12 0 -58 -54 -76 -90 -9 -17 -12 -41 -9 -58 3 -16 1 -32 -4 -36
-20 -12 -365 47 -433 75 -24 9 -129 165 -214 315 -27 47 -15 64 44 64 27 0 53
4 56 10 3 5 -21 23 -54 40 -82 41 -125 81 -170 159 -46 80 -121 253 -121 281
0 25 11 25 91 -1 130 -42 281 -122 344 -181 l31 -28 12 94 c6 52 21 120 33
151 11 31 18 59 15 62 -3 3 -24 -7 -47 -23 -45 -31 -79 -77 -79 -107 0 -31
-30 -31 -108 4 -176 76 -295 175 -360 295 -45 86 -40 104 6 21 74 -134 152
-201 329 -283 52 -24 96 -44 99 -44 2 0 15 22 28 48 17 34 40 59 80 85 45 30
57 44 67 79 28 96 6 508 -26 508 -32 0 -173 -263 -203 -380 -11 -41 -24 -76
-29 -77 -6 -2 -23 17 -37 42 -51 87 -161 182 -299 258 -83 46 -89 38 -62 -87
18 -86 13 -97 -10 -21 -26 92 -31 153 -12 161 35 13 263 -133 352 -227 31 -32
58 -59 61 -59 2 0 4 9 4 19 0 11 42 102 94 203 82 162 122 268 99 268 -5 0
-16 -28 -26 -63 -31 -104 -44 -124 -106 -158 -77 -44 -90 -56 -97 -96 -4 -19
-12 -37 -19 -40 -21 -7 -254 145 -316 207 -30 30 -69 80 -87 111 -49 86 -92
229 -92 305 0 71 12 86 53 66 56 -26 230 -169 293 -241 38 -44 71 -74 73 -68
25 79 224 386 266 409 8 5 15 21 15 36 0 15 7 62 15 105 18 92 19 117 5 117
-5 0 -10 -7 -10 -16 0 -26 -59 -192 -92 -260 -49 -101 -79 -130 -158 -154 -58
-17 -72 -26 -90 -56 -12 -19 -27 -33 -33 -31 -7 2 -21 22 -32 45 -15 31 -31
46 -67 63 -27 12 -67 42 -90 65 -42 42 -107 155 -108 184 0 8 13 -12 29 -45
15 -33 49 -83 74 -111 45 -50 127 -99 150 -91 6 2 16 23 22 47 6 24 16 45 22
47 16 6 36 -63 29 -98 -3 -16 -3 -29 0 -29 3 0 37 9 75 21 53 16 76 30 105 61
71 79 129 246 141 406 5 74 4 82 -12 82 -30 0 -151 -88 -208 -150 -52 -58 -66
-80 -101 -163 -9 -21 -21 -37 -27 -35 -6 2 -23 43 -39 91 -34 107 -99 213
-190 309 -91 97 -94 94 -94 -104 l0 -153 -18 90 c-9 50 -17 117 -18 150 0 43
-3 56 -10 45 -5 -8 -10 -62 -10 -120 0 -58 -5 -148 -11 -200 -6 -52 -9 -126
-8 -165 1 -38 1 -80 1 -92 0 -13 4 -23 9 -23 19 0 28 -77 19 -160 -5 -47 -10
-115 -10 -152 0 -39 -4 -68 -10 -68 -5 0 -10 -19 -10 -42 0 -23 -5 -70 -11
-105 -14 -78 -6 -117 21 -110 18 4 19 1 13 -39 -5 -37 -3 -44 11 -44 11 0 16
-9 16 -30 0 -16 5 -30 10 -30 6 0 10 -10 10 -22 0 -19 2 -20 11 -8 9 12 10 11
6 -5 -3 -11 -8 -29 -12 -40 -5 -16 -5 -17 4 -5 8 12 11 5 11 -30 0 -33 3 -41
10 -30 8 11 10 3 10 -30 -1 -25 -1 -69 0 -99 0 -30 -2 -63 -6 -73 -3 -10 -1
-18 5 -18 5 0 12 15 14 33 3 28 4 26 5 -10 1 -24 -2 -43 -8 -43 -16 0 -12 -27
5 -34 8 -3 12 -12 9 -19 -7 -19 26 -118 37 -111 5 3 9 -9 9 -26 0 -24 5 -33
21 -37 16 -4 19 -11 15 -29 -5 -17 -2 -22 7 -19 9 4 12 -10 12 -53 0 -43 5
-64 18 -77 12 -11 15 -20 8 -24 -7 -5 -4 -25 10 -62 31 -82 33 -90 19 -99 -7
-4 -10 -15 -7 -25 4 -9 12 -13 18 -9 9 5 10 -3 5 -28 -5 -30 -2 -39 23 -65 16
-17 32 -44 36 -61 6 -27 19 -42 36 -38 12 2 49 -37 49 -51 0 -8 7 -21 15 -29
8 -9 15 -20 15 -26 0 -6 -9 -1 -20 12 -11 13 -23 20 -28 15 -4 -4 -1 -10 6
-12 6 -3 12 -18 12 -34 0 -16 5 -29 10 -29 6 0 10 5 10 10 0 6 5 10 11 10 7 0
9 -9 6 -22 -4 -15 1 -29 19 -45 18 -17 23 -29 18 -45 -5 -17 -3 -20 10 -15 10
4 16 1 16 -8 0 -8 -5 -15 -11 -15 -6 0 -9 -6 -6 -12 2 -7 11 -12 20 -10 22 4
35 -46 16 -60 -10 -7 -8 -8 9 -5 21 5 23 3 18 -21 -3 -15 -3 -21 0 -14 10 22
44 14 44 -10 0 -19 2 -20 10 -8 8 13 11 12 23 -5 23 -30 29 -112 12 -152 -8
-19 -12 -39 -9 -44 2 -5 0 -18 -7 -30 -8 -17 -8 -23 1 -29 10 -6 9 -10 -1 -16
-18 -11 -19 -104 -2 -122 18 -19 16 -52 -4 -69 -17 -14 -17 -14 2 -7 11 4 45
10 75 12 30 2 61 9 68 14 18 16 28 0 11 -17 -8 -8 -162 -64 -343 -125 -181
-61 -404 -140 -495 -176 -183 -73 -476 -217 -485 -240 -3 -8 4 -19 17 -25 23
-13 406 -257 492 -315 49 -33 115 -90 115 -100 0 -9 -35 14 -55 36 -19 21
-435 292 -528 343 -26 15 -58 27 -71 27 -22 0 -26 -8 -47 -95 -18 -76 -26 -95
-41 -95 -16 0 -18 -9 -18 -67 0 -48 -3 -64 -10 -53 -5 8 -10 27 -10 43 0 15
-5 27 -11 27 -8 0 -9 88 -5 318 4 174 8 360 9 414 1 53 6 91 10 85 4 -7 7 -39
6 -72 -2 -99 2 -105 48 -59 20 21 23 28 12 34 -7 5 -10 13 -5 17 5 4 11 2 13
-4 5 -15 33 -17 33 -3 0 6 7 10 16 10 18 0 44 23 44 39 0 6 11 11 25 11 14 0
25 5 25 10 0 6 14 10 30 10 17 0 30 5 30 10 0 6 8 10 18 10 10 0 24 9 32 20 9
13 26 20 47 20 18 0 33 5 33 10 0 6 9 10 20 10 11 0 20 5 20 10 0 6 11 10 25
10 14 0 25 5 25 10 0 6 9 10 20 10 11 0 20 5 20 10 0 6 16 10 35 10 24 0 35 5
35 15 0 8 9 15 20 15 22 0 27 16 8 22 -8 3 -2 15 15 32 16 16 31 25 34 22 4
-3 -4 -14 -15 -25 -29 -25 -28 -31 8 -31 17 0 30 5 30 10 0 6 16 10 35 10 19
0 35 5 35 10 0 6 -4 10 -10 10 -5 0 -10 9 -10 20 0 11 5 20 10 20 6 0 10 -9
10 -20 0 -15 7 -20 25 -20 14 0 25 5 25 10 0 6 14 10 30 10 17 0 30 5 30 10 0
6 9 10 20 10 11 0 20 5 20 10 0 6 5 10 10 10 14 0 60 46 60 60 0 5 5 10 10 10
6 0 10 18 10 39 0 22 5 42 13 44 9 4 8 8 -3 17 -11 9 -12 13 -2 17 14 6 17 73
2 73 -5 0 -10 12 -10 26 0 16 -12 37 -30 54 -18 17 -30 38 -30 54 0 16 -6 26
-15 26 -8 0 -15 6 -15 13 0 7 -9 19 -20 27 -11 8 -20 22 -20 32 0 10 -7 18
-16 18 -20 0 -44 24 -44 44 0 8 -11 26 -25 40 -14 14 -25 28 -25 31 0 3 -16
21 -35 41 -19 19 -35 44 -35 54 0 11 -4 20 -10 20 -5 0 -10 9 -10 20 0 11 -4
20 -10 20 -5 0 -10 -4 -10 -10 0 -5 -4 -10 -10 -10 -5 0 -10 7 -10 15 0 8 5
15 10 15 22 0 8 34 -30 70 -22 21 -40 45 -40 54 0 8 -11 26 -25 40 -14 14 -25
33 -25 43 0 10 -9 25 -20 33 -11 8 -20 22 -20 32 0 11 -7 18 -20 18 -15 0 -20
7 -20 30 0 18 -10 39 -25 54 -14 14 -25 37 -25 51 0 29 -51 88 -58 67 -4 -14
-32 -16 -32 -2 0 6 7 10 16 10 14 0 15 9 9 63 -4 34 -11 64 -16 65 -5 2 -9 12
-9 23 0 10 -4 19 -10 19 -5 0 -10 14 -10 30 0 17 -4 30 -10 30 -5 0 -10 9 -10
20 0 11 -4 20 -10 20 -5 0 -10 7 -10 15 0 8 -4 15 -10 15 -5 0 -10 14 -10 30
0 17 -4 30 -10 30 -5 0 -12 23 -16 50 -4 28 -10 50 -15 50 -5 0 -9 11 -9 25 0
14 -4 25 -10 25 -5 0 -10 18 -10 40 0 22 -4 40 -10 40 -5 0 -10 9 -10 20 0 11
-4 20 -10 20 -5 0 -10 16 -10 35 0 19 -4 35 -9 35 -4 0 -11 37 -15 83 -4 45
-11 84 -16 85 -6 2 -10 21 -10 43 0 21 -4 39 -10 39 -5 0 -10 14 -10 30 0 17
-4 30 -10 30 -6 0 -10 35 -10 84 0 59 -4 86 -12 88 -10 4 -13 107 -13 473 0
366 3 469 13 472 8 3 12 28 12 79 0 43 4 74 10 74 6 0 10 14 10 30 0 17 5 30
10 30 6 0 10 20 10 44 0 24 4 46 10 48 5 2 12 36 16 76 4 39 11 72 15 72 5 0
9 9 9 20 0 11 5 20 10 20 6 0 10 14 10 30 0 17 5 30 10 30 6 0 10 16 10 35 0
19 5 35 10 35 6 0 10 9 10 20 0 11 4 20 9 20 5 0 12 18 16 40 4 22 11 40 16
40 5 0 9 9 9 20 0 11 5 20 10 20 6 0 10 11 10 25 0 14 5 25 10 25 6 0 10 9 10
20 0 11 5 20 10 20 6 0 10 9 10 20 0 11 5 20 10 20 6 0 10 9 10 20 0 11 4 20
9 20 4 0 11 24 14 52 4 29 11 54 17 56 5 2 10 11 10 21 0 9 9 23 20 31 11 8
20 22 20 32 0 10 5 18 10 18 6 0 10 7 10 15 0 8 4 15 9 15 5 0 12 16 16 36 4
24 20 50 46 75 21 20 39 45 39 54 0 9 11 27 25 41 14 14 25 36 25 50 0 17 14
39 40 64 22 21 40 43 40 49 0 6 5 11 10 11 6 0 10 14 10 30 0 17 5 30 10 30 6
0 10 9 10 20 0 10 16 35 35 54 19 20 35 42 35 51 0 9 11 27 25 41 14 14 25 34
25 44 0 13 7 20 20 20 13 0 20 7 20 18 0 10 9 24 20 32 11 8 20 23 20 33 0 10
11 29 25 43 14 14 25 32 25 40 0 9 14 29 30 44 17 15 30 36 30 45 0 10 8 25
18 34 11 9 22 28 26 44 3 15 11 27 16 27 6 0 10 7 10 16 0 9 14 29 30 44 17
15 30 31 30 34 0 4 11 18 25 32 14 14 25 32 25 40 0 20 24 44 44 44 9 0 16 8
16 18 0 10 9 24 20 32 11 8 20 20 20 28 0 7 4 11 9 8 11 -7 21 28 21 82 0 23
5 42 10 42 6 0 10 -13 10 -30 0 -16 3 -30 6 -30 11 0 34 29 34 42 0 8 9 20 20
28 23 16 26 41 8 70 -7 10 -8 23 -4 27 5 4 11 2 13 -4 8 -23 44 -14 73 17 15
17 35 30 43 30 8 0 17 13 21 30 3 18 12 30 21 30 16 0 45 23 45 35 0 3 11 17
25 31 14 14 25 29 25 34 0 6 7 10 16 10 20 0 44 24 44 44 0 9 8 16 20 16 13 0
20 7 20 20 0 11 5 20 10 20 6 0 10 7 10 15 0 8 5 15 11 15 6 0 18 7 26 16 14
13 14 17 2 24 -7 5 -10 12 -6 17 5 4 12 1 17 -7 7 -12 12 -11 28 8 11 12 24
22 31 22 16 0 14 16 -4 34 -19 18 -19 26 -2 26 8 0 19 -10 25 -22 6 -13 11
-17 11 -10 1 6 9 12 19 12 10 0 24 9 32 20 8 11 22 20 31 20 9 0 19 9 22 20 3
11 1 20 -4 20 -5 0 -9 7 -9 15 0 8 5 15 10 15 6 0 10 9 10 20 0 11 5 20 11 20
7 0 9 -11 6 -30 -9 -41 7 -38 53 10 21 22 42 40 47 40 5 0 15 9 23 20 8 11 22
20 32 20 10 0 18 5 18 10 0 6 11 10 25 10 16 0 25 6 25 15 0 10 10 15 30 15
17 0 30 5 30 10 0 6 14 10 30 10 30 0 41 14 18 23 -8 2 -9 8 -4 13 5 5 11 4
13 -3 6 -15 93 -18 93 -3 0 6 40 10 100 10 60 0 100 4 100 10 0 6 18 10 41 10
36 0 40 2 34 20 -5 14 -2 20 9 20 9 0 16 -4 16 -10 0 -5 16 -10 35 -10 19 0
35 5 35 10 0 6 40 10 99 10 70 0 101 4 105 13 5 10 7 10 12 0 4 -9 28 -13 70
-13 57 0 64 2 64 20 0 13 7 20 20 20 11 0 20 -4 20 -10z m1880 0 c0 -5 -4 -10
-10 -10 -5 0 -10 5 -10 10 0 6 5 10 10 10 6 0 10 -4 10 -10z m60 0 c0 -5 -4
-10 -10 -10 -5 0 -10 5 -10 10 0 6 5 10 10 10 6 0 10 -4 10 -10z m240 0 c0 -5
-9 -10 -20 -10 -11 0 -20 5 -20 10 0 6 9 10 20 10 11 0 20 -4 20 -10z m-2810
-20 c0 -5 -4 -10 -10 -10 -5 0 -10 5 -10 10 0 6 5 10 10 10 6 0 10 -4 10 -10z
m2850 0 c0 -5 -7 -10 -15 -10 -8 0 -15 5 -15 10 0 6 7 10 15 10 8 0 15 -4 15
-10z m160 -10 c0 -13 -7 -20 -20 -20 -23 0 -25 5 -7 25 17 20 27 18 27 -5z
m-2960 -10 c0 -5 -4 -10 -10 -10 -5 0 -10 5 -10 10 0 6 5 10 10 10 6 0 10 -4
10 -10z m650 0 c0 -5 -4 -10 -10 -10 -5 0 -10 5 -10 10 0 6 5 10 10 10 6 0 10
-4 10 -10z m1680 0 c0 -5 -4 -10 -10 -10 -5 0 -10 5 -10 10 0 6 5 10 10 10 6
0 10 -4 10 -10z m720 0 c0 -5 -7 -10 -15 -10 -8 0 -15 5 -15 10 0 6 7 10 15
10 8 0 15 -4 15 -10z m80 0 c0 -5 -13 -10 -30 -10 -16 0 -30 5 -30 10 0 6 14
10 30 10 17 0 30 -4 30 -10z m-3390 -20 c0 -5 -4 -10 -10 -10 -5 0 -10 5 -10
10 0 6 5 10 10 10 6 0 10 -4 10 -10z m40 0 c0 -5 -4 -10 -10 -10 -5 0 -10 5
-10 10 0 6 5 10 10 10 6 0 10 -4 10 -10z m40 0 c0 -5 -4 -10 -10 -10 -5 0 -10
5 -10 10 0 6 5 10 10 10 6 0 10 -4 10 -10z m90 0 c0 -5 -4 -10 -10 -10 -5 0
-10 5 -10 10 0 6 5 10 10 10 6 0 10 -4 10 -10z m1520 -22 c0 -5 -9 -8 -19 -8
-11 0 -21 -6 -24 -12 -2 -7 -8 -10 -12 -6 -4 4 4 18 16 31 22 22 38 20 39 -5z
m1570 22 c0 -5 -4 -10 -10 -10 -5 0 -10 5 -10 10 0 6 5 10 10 10 6 0 10 -4 10
-10z m247 -5 c8 -9 13 -19 10 -22 -6 -5 -37 21 -37 31 0 10 11 6 27 -9z
m-3557 -15 c0 -5 -4 -10 -10 -10 -5 0 -10 5 -10 10 0 6 5 10 10 10 6 0 10 -4
10 -10z m1000 0 c0 -5 -4 -10 -10 -10 -5 0 -10 5 -10 10 0 6 5 10 10 10 6 0
10 -4 10 -10z m790 0 c0 -5 -4 -10 -10 -10 -5 0 -10 5 -10 10 0 6 5 10 10 10
6 0 10 -4 10 -10z m90 0 c0 -5 -7 -10 -15 -10 -8 0 -15 5 -15 10 0 6 7 10 15
10 8 0 15 -4 15 -10z m630 -69 c0 -17 -17 -13 -24 5 -10 27 -7 36 9 20 8 -8
15 -19 15 -25z m1190 18 c0 -15 -4 -19 -16 -15 -9 3 -18 6 -20 6 -2 0 -4 7 -4
15 0 8 9 15 20 15 14 0 20 -7 20 -21z m-3880 -36 c-11 -17 -11 -17 -6 0 3 10
6 24 7 30 0 9 2 9 5 0 3 -7 0 -20 -6 -30z m70 22 c0 -8 -9 -15 -20 -15 -11 0
-20 7 -20 15 0 8 9 15 20 15 11 0 20 -7 20 -15z m3846 1 c16 -17 19 -56 4 -56
-5 0 -10 9 -10 20 0 11 -4 20 -10 20 -5 0 -10 7 -10 15 0 19 7 19 26 1z
m-6109 -68 c-3 -7 -5 -2 -5 12 0 14 2 19 5 13 2 -7 2 -19 0 -25z m4813 -18 c0
-5 -4 -10 -10 -10 -5 0 -10 5 -10 10 0 6 5 10 10 10 6 0 10 -4 10 -10z m1380
0 c0 -5 -7 -10 -15 -10 -8 0 -15 5 -15 10 0 6 7 10 15 10 8 0 15 -4 15 -10z
m-6193 -42 c-3 -7 -5 -2 -5 12 0 14 2 19 5 13 2 -7 2 -19 0 -25z m3523 22 c0
-5 -7 -10 -15 -10 -8 0 -15 5 -15 10 0 6 7 10 15 10 8 0 15 -4 15 -10z m2710
-10 c0 -11 -4 -20 -10 -20 -5 0 -10 9 -10 20 0 11 5 20 10 20 6 0 10 -9 10
-20z m-1440 -10 c0 -5 -4 -10 -10 -10 -5 0 -10 5 -10 10 0 6 5 10 10 10 6 0
10 -4 10 -10z m-50 -45 c0 -8 -7 -15 -15 -15 -8 0 -15 7 -15 15 0 8 7 15 15
15 8 0 15 -7 15 -15z m-1020 -20 c0 -8 -4 -15 -10 -15 -5 0 -10 7 -10 15 0 8
5 15 10 15 6 0 10 -7 10 -15z m-1850 -105 c0 -5 -4 -10 -10 -10 -5 0 -10 5
-10 10 0 6 5 10 10 10 6 0 10 -4 10 -10z m4660 -85 c0 -8 -4 -15 -10 -15 -5 0
-10 7 -10 15 0 8 5 15 10 15 6 0 10 -7 10 -15z m-4750 -20 c0 -8 -8 -15 -18
-15 -10 0 -24 -9 -32 -20 -18 -25 -30 -26 -30 -1 0 11 9 23 20 26 11 3 20 11
20 16 0 5 9 9 20 9 11 0 20 -7 20 -15z m4788 -23 c2 -7 -3 -12 -12 -12 -9 0
-16 7 -16 16 0 17 22 14 28 -4z m32 -22 c0 -5 -4 -10 -10 -10 -5 0 -10 5 -10
10 0 6 5 10 10 10 6 0 10 -4 10 -10z m-4910 -40 c0 -5 -4 -10 -10 -10 -5 0
-10 5 -10 10 0 6 5 10 10 10 6 0 10 -4 10 -10z m4970 -20 c0 -5 -4 -10 -10
-10 -5 0 -10 5 -10 10 0 6 5 10 10 10 6 0 10 -4 10 -10z m-5057 -67 c-7 -2
-13 -11 -13 -19 0 -8 -4 -14 -10 -14 -5 0 -10 6 -10 14 0 14 15 24 35 24 6 0
4 -2 -2 -5z m-103 -93 c0 -11 -4 -20 -10 -20 -5 0 -10 9 -10 20 0 11 5 20 10
20 6 0 10 -9 10 -20z m5320 -35 c0 -16 -29 -1 -38 20 -17 37 -15 39 13 11 14
-14 25 -28 25 -31z m-5360 5 c0 -5 -4 -10 -10 -10 -5 0 -10 5 -10 10 0 6 5 10
10 10 6 0 10 -4 10 -10z m-1461 -107 c-1 -34 -2 -35 -9 -13 -11 36 -11 50 0
50 6 0 10 -17 9 -37z m6951 -63 c0 -5 -4 -10 -10 -10 -5 0 -10 5 -10 10 0 6 5
10 10 10 6 0 10 -4 10 -10z m170 -150 c0 -5 -4 -10 -10 -10 -5 0 -10 5 -10 10
0 6 5 10 10 10 6 0 10 -4 10 -10z m0 -40 c0 -5 -4 -10 -10 -10 -5 0 -10 5 -10
10 0 6 5 10 10 10 6 0 10 -4 10 -10z m40 -65 c0 -8 -4 -15 -10 -15 -5 0 -10 7
-10 15 0 8 5 15 10 15 6 0 10 -7 10 -15z m90 -105 c0 -5 -9 -10 -20 -10 -11 0
-20 5 -20 10 0 6 9 10 20 10 11 0 20 -4 20 -10z m-6320 -210 c0 -5 -4 -10 -10
-10 -5 0 -10 5 -10 10 0 6 5 10 10 10 6 0 10 -4 10 -10z m-130 -150 c0 -5 -4
-10 -10 -10 -5 0 -10 5 -10 10 0 6 5 10 10 10 6 0 10 -4 10 -10z m-803 -172
c-3 -8 -6 -5 -6 6 -1 11 2 17 5 13 3 -3 4 -12 1 -19z m673 -18 c0 -5 -4 -10
-10 -10 -5 0 -10 5 -10 10 0 6 5 10 10 10 6 0 10 -4 10 -10z m-110 -170 c0 -5
-4 -10 -10 -10 -5 0 -10 5 -10 10 0 6 5 10 10 10 6 0 10 -4 10 -10z m7170 -40
c0 -5 -4 -10 -10 -10 -5 0 -10 5 -10 10 0 6 5 10 10 10 6 0 10 -4 10 -10z m60
-40 c0 -5 -7 -10 -15 -10 -8 0 -15 5 -15 10 0 6 7 10 15 10 8 0 15 -4 15 -10z
m-7310 -27 c0 -28 -16 -47 -34 -40 -20 8 -21 37 -1 37 8 0 15 5 15 10 0 6 5
10 10 10 6 0 10 -8 10 -17z m2207 -39 c-3 -3 -12 -4 -19 -1 -8 3 -5 6 6 6 11
1 17 -2 13 -5z m-2297 -84 c0 -5 -4 -10 -10 -10 -5 0 -10 5 -10 10 0 6 5 10
10 10 6 0 10 -4 10 -10z m80 0 c0 -5 -7 -10 -15 -10 -8 0 -15 5 -15 10 0 6 7
10 15 10 8 0 15 -4 15 -10z m7420 -20 c0 -5 -16 -10 -35 -10 -19 0 -35 5 -35
10 0 6 16 10 35 10 19 0 35 -4 35 -10z m20 -65 c0 -8 -4 -15 -10 -15 -5 0 -10
7 -10 15 0 8 5 15 10 15 6 0 10 -7 10 -15z m20 -40 c0 -8 -4 -15 -10 -15 -5 0
-10 7 -10 15 0 8 5 15 10 15 6 0 10 -7 10 -15z m-7933 -27 c-3 -8 -6 -5 -6 6
-1 11 2 17 5 13 3 -3 4 -12 1 -19z m0 -60 c-3 -7 -5 -2 -5 12 0 14 2 19 5 13
2 -7 2 -19 0 -25z m7973 22 c0 -5 -9 -10 -20 -10 -11 0 -20 5 -20 10 0 6 9 10
20 10 11 0 20 -4 20 -10z m-7670 -20 c0 -5 -4 -10 -10 -10 -5 0 -10 5 -10 10
0 6 5 10 10 10 6 0 10 -4 10 -10z m7690 -20 c0 -5 -9 -10 -20 -10 -11 0 -20 5
-20 10 0 6 9 10 20 10 11 0 20 -4 20 -10z m-7993 -72 c-3 -8 -6 -5 -6 6 -1 11
2 17 5 13 3 -3 4 -12 1 -19z m7993 -13 c0 -8 -4 -15 -10 -15 -5 0 -10 7 -10
15 0 8 5 15 10 15 6 0 10 -7 10 -15z m70 -69 c0 -13 6 -26 13 -29 6 -2 9 -8 5
-12 -12 -12 -38 22 -38 49 0 16 -6 26 -15 26 -8 0 -15 9 -15 20 0 20 1 20 25
-4 14 -14 25 -36 25 -50z m-8046 -101 c3 -8 1 -15 -4 -15 -6 0 -10 7 -10 15 0
8 2 15 4 15 2 0 6 -7 10 -15z m8066 5 c0 -5 -4 -10 -10 -10 -5 0 -10 5 -10 10
0 6 5 10 10 10 6 0 10 -4 10 -10z m-7930 -25 c0 -8 -4 -15 -10 -15 -5 0 -10 7
-10 15 0 8 5 15 10 15 6 0 10 -7 10 -15z m46 1 c20 -20 17 -36 -6 -36 -15 0
-20 7 -20 25 0 29 6 31 26 11z m-199 -28 c-3 -8 -6 -5 -6 6 -1 11 2 17 5 13 3
-3 4 -12 1 -19z m8083 2 c0 -5 -4 -10 -10 -10 -5 0 -10 5 -10 10 0 6 5 10 10
10 6 0 10 -4 10 -10z m-7964 -75 c-17 -17 -36 -20 -36 -5 0 6 6 10 14 10 7 0
17 15 21 33 l8 32 4 -28 c3 -15 -2 -33 -11 -42z m-115 -11 c-5 -16 -10 -21
-10 -12 -1 18 10 51 15 45 2 -1 -1 -16 -5 -33z m8139 26 c0 -5 -4 -10 -10 -10
-5 0 -10 5 -10 10 0 6 5 10 10 10 6 0 10 -4 10 -10z m-8134 -121 c1 -22 0 -38
-3 -35 -3 3 -7 24 -8 46 -1 22 0 38 3 35 3 -3 7 -24 8 -46z m94 36 c0 -8 -4
-15 -10 -15 -5 0 -10 7 -10 15 0 8 5 15 10 15 6 0 10 -7 10 -15z m30 -10 c0
-14 -4 -25 -10 -25 -5 0 -10 11 -10 25 0 14 5 25 10 25 6 0 10 -11 10 -25z
m8010 10 c0 -8 -4 -15 -10 -15 -5 0 -10 7 -10 15 0 8 5 15 10 15 6 0 10 -7 10
-15z m50 -40 c0 -8 -4 -15 -10 -15 -5 0 -10 7 -10 15 0 8 5 15 10 15 6 0 10
-7 10 -15z m-8110 -45 c0 -5 -4 -10 -10 -10 -5 0 -10 5 -10 10 0 6 5 10 10 10
6 0 10 -4 10 -10z m-81 -72 l-2 -63 -7 50 c-6 46 -4 75 6 75 2 0 3 -28 3 -62z
m8211 12 c0 -5 -4 -10 -10 -10 -5 0 -10 5 -10 10 0 6 5 10 10 10 6 0 10 -4 10
-10z m40 0 c0 -5 -4 -10 -10 -10 -5 0 -10 5 -10 10 0 6 5 10 10 10 6 0 10 -4
10 -10z m-8150 -25 c0 -8 -9 -15 -20 -15 -11 0 -20 7 -20 15 0 8 9 15 20 15
11 0 20 -7 20 -15z m-80 -97 c0 -10 -4 -18 -8 -18 -5 0 -9 -104 -10 -231 0
-127 -3 -234 -6 -237 -3 -2 -5 96 -4 219 0 123 -2 236 -6 251 -5 18 -3 32 6
41 15 17 28 5 28 -25z m8210 -48 c0 -5 -4 -10 -10 -10 -5 0 -10 5 -10 10 0 6
5 10 10 10 6 0 10 -4 10 -10z m50 -30 c0 -11 -4 -20 -10 -20 -5 0 -10 2 -10 4
0 2 -3 11 -6 20 -4 11 -1 16 10 16 9 0 16 -8 16 -20z m0 -55 c0 -8 -4 -15 -10
-15 -5 0 -10 7 -10 15 0 8 5 15 10 15 6 0 10 -7 10 -15z m20 -105 c0 -5 -4
-10 -10 -10 -5 0 -10 5 -10 10 0 6 5 10 10 10 6 0 10 -4 10 -10z m-20 -65 c0
-37 -13 -47 -24 -19 -8 20 2 54 15 54 5 0 9 -16 9 -35z m40 -85 c0 -5 -4 -10
-10 -10 -5 0 -10 5 -10 10 0 6 5 10 10 10 6 0 10 -4 10 -10z m0 -40 c0 -5 -4
-10 -10 -10 -5 0 -10 5 -10 10 0 6 5 10 10 10 6 0 10 -4 10 -10z m0 -170 c0
-5 -4 -10 -10 -10 -5 0 -10 5 -10 10 0 6 5 10 10 10 6 0 10 -4 10 -10z m-8323
-342 c-1 -62 -3 -12 -3 112 0 124 2 174 3 113 2 -62 2 -164 0 -225z m8363 257
c0 -8 -9 -15 -20 -15 -11 0 -20 7 -20 15 0 8 9 15 20 15 11 0 20 -7 20 -15z
m0 -65 c0 -5 -9 -10 -20 -10 -11 0 -20 5 -20 10 0 6 9 10 20 10 11 0 20 -4 20
-10z m-20 -39 c0 -5 -6 -12 -12 -15 -10 -5 -10 -7 0 -12 14 -7 17 -64 2 -64
-5 0 -10 -7 -10 -15 0 -8 -9 -15 -20 -15 -11 0 -20 7 -20 15 0 8 9 15 20 15
11 0 20 5 20 10 0 6 -4 10 -10 10 -5 0 -10 9 -10 19 0 11 -5 21 -12 23 -9 3
-8 9 2 21 16 17 50 23 50 8z m-7581 -151 c0 -9 -4 -8 -9 5 -5 11 -9 27 -9 35
0 9 4 8 9 -5 5 -11 9 -27 9 -35z m7581 -99 c0 -5 -7 -12 -16 -15 -22 -9 -24
-8 -24 9 0 8 9 15 20 15 11 0 20 -4 20 -9z m6 -55 c21 -22 17 -26 -26 -26 -44
0 -58 25 -17 33 12 2 23 5 25 6 2 0 10 -5 18 -13z m-8343 -439 c2 -191 2 -345
-1 -342 -3 3 -7 161 -9 352 -2 191 -2 345 1 342 3 -3 7 -161 9 -352z m8317
193 c0 -5 -9 -10 -20 -10 -11 0 -20 5 -20 10 0 6 9 10 20 10 11 0 20 -4 20
-10z m-40 -125 c0 -8 -4 -15 -10 -15 -5 0 -10 7 -10 15 0 8 5 15 10 15 6 0 10
-7 10 -15z m-6 -91 c9 -24 0 -29 -19 -11 -19 19 -19 27 -1 27 8 0 17 -7 20
-16z m6 -59 c0 -8 -7 -15 -15 -15 -8 0 -15 7 -15 15 0 8 7 15 15 15 8 0 15 -7
15 -15z m-8220 -60 c0 -8 -4 -15 -10 -15 -5 0 -10 7 -10 15 0 8 5 15 10 15 6
0 10 -7 10 -15z m8174 -31 c3 -9 3 -20 0 -26 -4 -6 0 -14 7 -19 7 -4 10 -11 7
-15 -9 -9 -58 42 -58 61 0 20 36 20 44 -1z m-8194 -14 c0 -5 -4 -10 -10 -10
-5 0 -10 5 -10 10 0 6 5 10 10 10 6 0 10 -4 10 -10z m40 -16 c0 -3 -7 -12 -15
-21 -20 -19 -32 -10 -14 11 14 15 29 21 29 10z m8150 -64 c0 -5 -4 -10 -10
-10 -5 0 -10 5 -10 10 0 6 5 10 10 10 6 0 10 -4 10 -10z m-8110 -25 c0 -8 -7
-15 -15 -15 -8 0 -15 7 -15 15 0 8 7 15 15 15 8 0 15 -7 15 -15z m-60 -20 c0
-8 -4 -15 -10 -15 -5 0 -10 7 -10 15 0 8 5 15 10 15 6 0 10 -7 10 -15z m8150
0 c0 -8 -4 -15 -10 -15 -5 0 -10 7 -10 15 0 8 5 15 10 15 6 0 10 -7 10 -15z
m-8144 -49 c19 -20 18 -26 -6 -26 -13 0 -20 7 -20 20 0 24 6 25 26 6z m-60
-30 c3 -14 1 -33 -5 -43 -9 -14 -9 -12 -5 15 4 21 3 32 -5 32 -6 0 -11 5 -11
10 0 20 20 9 26 -14z m8144 14 c0 -5 -7 -10 -15 -10 -8 0 -15 5 -15 10 0 6 7
10 15 10 8 0 15 -4 15 -10z m-8030 -20 c0 -5 -7 -10 -15 -10 -8 0 -15 5 -15
10 0 6 7 10 15 10 8 0 15 -4 15 -10z m-20 -40 c0 -5 -4 -10 -10 -10 -5 0 -10
5 -10 10 0 6 5 10 10 10 6 0 10 -4 10 -10z m8040 -25 c0 -8 -4 -15 -10 -15 -5
0 -10 7 -10 15 0 8 5 15 10 15 6 0 10 -7 10 -15z m30 -20 c0 -8 -4 -15 -10
-15 -5 0 -10 7 -10 15 0 8 5 15 10 15 6 0 10 -7 10 -15z m-20 -40 c0 -8 -7
-15 -15 -15 -8 0 -15 7 -15 15 0 8 7 15 15 15 8 0 15 -7 15 -15z m-8149 -42
c-12 -20 -14 -14 -5 12 4 9 9 14 11 11 3 -2 0 -13 -6 -23z m8079 17 c0 -5 -4
-10 -10 -10 -5 0 -10 5 -10 10 0 6 5 10 10 10 6 0 10 -4 10 -10z m20 -40 c0
-5 -4 -10 -10 -10 -5 0 -10 5 -10 10 0 6 5 10 10 10 6 0 10 -4 10 -10z m-6760
-62 c24 -26 26 -70 4 -89 -25 -21 -57 23 -48 65 11 53 15 55 44 24z m-1333
-30 c-3 -8 -6 -5 -6 6 -1 11 2 17 5 13 3 -3 4 -12 1 -19z m183 -58 c0 -5 -4
-10 -10 -10 -5 0 -10 5 -10 10 0 6 5 10 10 10 6 0 10 -4 10 -10z m7830 -47 c0
-23 -17 -49 -26 -41 -9 10 4 58 16 58 6 0 10 -8 10 -17z m40 7 c0 -5 -4 -10
-10 -10 -5 0 -10 5 -10 10 0 6 5 10 10 10 6 0 10 -4 10 -10z m-55 -99 c3 -5 1
-12 -5 -16 -5 -3 -10 1 -10 9 0 18 6 21 15 7z m-7741 -7 c23 -9 20 -34 -4 -34
-13 0 -20 7 -20 20 0 22 1 23 24 14z m-267 -66 c-3 -7 -5 -2 -5 12 0 14 2 19
5 13 2 -7 2 -19 0 -25z m7980 17 c8 -9 12 -19 8 -23 -4 -4 -10 -1 -12 6 -3 6
-13 12 -24 12 -10 0 -19 5 -19 10 0 15 30 12 47 -5z m-7677 -55 c0 -5 -4 -10
-10 -10 -5 0 -10 5 -10 10 0 6 5 10 10 10 6 0 10 -4 10 -10z m7650 0 c0 -5 -4
-10 -10 -10 -5 0 -10 5 -10 10 0 6 5 10 10 10 6 0 10 -4 10 -10z m0 -43 c0 -8
-11 -19 -25 -25 -23 -11 -25 -10 -25 13 0 20 5 25 25 25 14 0 25 -6 25 -13z
m-7943 -49 c-3 -8 -6 -5 -6 6 -1 11 2 17 5 13 3 -3 4 -12 1 -19z m353 2 c0 -5
12 -21 26 -35 14 -14 23 -29 19 -33 -4 -4 -10 -1 -12 6 -3 6 -9 12 -15 12 -15
0 -38 27 -38 44 0 9 5 16 10 16 6 0 10 -4 10 -10z m-363 -102 c-3 -7 -5 -2 -5
12 0 14 2 19 5 13 2 -7 2 -19 0 -25z m7883 22 c0 -5 -4 -10 -10 -10 -5 0 -10
5 -10 10 0 6 5 10 10 10 6 0 10 -4 10 -10z m-7470 -20 c0 -5 -4 -10 -10 -10
-5 0 -10 5 -10 10 0 6 5 10 10 10 6 0 10 -4 10 -10z m7410 -51 c0 -22 -22 -49
-39 -49 -16 0 -13 23 7 48 22 27 32 28 32 1z m-7370 -14 c0 -8 -4 -15 -10 -15
-5 0 -10 7 -10 15 0 8 5 15 10 15 6 0 10 -7 10 -15z m20 -40 c0 -8 -7 -15 -15
-15 -16 0 -20 12 -8 23 11 12 23 8 23 -8z m10 -45 c0 -5 -4 -10 -10 -10 -5 0
-10 5 -10 10 0 6 5 10 10 10 6 0 10 -4 10 -10z m7230 -80 c0 -5 -4 -10 -10
-10 -5 0 -10 5 -10 10 0 6 5 10 10 10 6 0 10 -4 10 -10z m-6710 -71 c0 -5 -4
-9 -10 -9 -5 0 -10 7 -10 16 0 8 5 12 10 9 6 -3 10 -10 10 -16z m6620 -39 c0
-5 -9 -10 -20 -10 -11 0 -20 5 -20 10 0 6 9 10 20 10 11 0 20 -4 20 -10z
m-6970 -16 c0 -3 -7 -12 -15 -21 -20 -19 -32 -10 -14 11 14 15 29 21 29 10z
m6970 -24 c0 -5 -9 -10 -20 -10 -11 0 -20 5 -20 10 0 6 9 10 20 10 11 0 20 -4
20 -10z m-6930 -60 c0 -5 -4 -10 -10 -10 -5 0 -10 5 -10 10 0 6 5 10 10 10 6
0 10 -4 10 -10z m390 -10 c0 -5 -4 -10 -10 -10 -5 0 -10 5 -10 10 0 6 5 10 10
10 6 0 10 -4 10 -10z m-361 -74 c0 -20 -1 -20 -11 2 -6 12 -17 22 -25 22 -16
0 -17 17 0 23 16 6 37 -21 36 -47z m-722 12 c-3 -7 -5 -2 -5 12 0 14 2 19 5
13 2 -7 2 -19 0 -25z m10 -170 c-3 -8 -6 -5 -6 6 -1 11 2 17 5 13 3 -3 4 -12
1 -19z m923 -18 c0 -5 -4 -10 -10 -10 -5 0 -10 5 -10 10 0 6 5 10 10 10 6 0
10 -4 10 -10z m-933 -102 c-3 -7 -5 -2 -5 12 0 14 2 19 5 13 2 -7 2 -19 0 -25z
m4195 -186 c26 -30 28 -38 28 -121 0 -82 -2 -92 -26 -120 l-26 -31 29 -98 c31
-105 32 -122 3 -122 -26 0 -35 16 -60 110 -39 149 -63 148 -70 -1 -5 -103 -5
-104 -30 -104 l-25 0 -7 250 c-8 290 -13 276 90 271 59 -2 68 -6 94 -34z
m-337 -2 c0 -23 -4 -25 -47 -28 -28 -2 -48 -8 -52 -17 -3 -8 -2 -46 1 -84 l6
-71 37 0 c74 0 76 -56 2 -62 l-37 -3 -3 -65 c-5 -102 -1 -110 59 -110 49 0 50
-1 47 -27 -3 -28 -4 -28 -80 -31 l-76 -3 -6 73 c-3 40 -8 155 -11 255 -6 212
-10 204 95 200 62 -2 65 -3 65 -27z m627 -95 c14 -66 32 -146 38 -178 6 -32
15 -56 18 -52 4 4 9 84 12 178 5 157 7 172 24 175 10 2 23 -1 28 -6 7 -7 8
-95 3 -261 -7 -226 -9 -251 -25 -256 -9 -3 -28 -1 -41 4 -22 8 -27 23 -53 147
-56 273 -64 276 -68 29 -3 -165 -4 -170 -24 -173 -13 -2 -24 4 -28 15 -4 10
-4 127 0 261 l7 243 41 -3 41 -3 27 -120z m470 85 l31 -31 -8 -192 c-7 -191
-16 -238 -48 -265 -26 -22 -81 -26 -116 -7 -54 28 -59 55 -52 274 l7 194 32
28 c47 42 112 41 154 -1z m-1392 -5 c0 -20 -6 -27 -30 -31 l-30 -6 1 -87 c0
-47 4 -144 8 -216 8 -134 2 -169 -27 -163 -22 4 -28 46 -37 265 -7 182 -15
217 -45 198 -11 -7 -40 11 -40 26 0 4 7 15 16 23 12 12 36 16 100 16 83 0 84
0 84 -25z m-3563 -17 c-3 -8 -6 -5 -6 6 -1 11 2 17 5 13 3 -3 4 -12 1 -19z
m953 7 c0 -8 -4 -15 -10 -15 -5 0 -10 -9 -10 -20 0 -22 -15 -27 -23 -7 -4 9
-8 8 -16 -3 -5 -8 -13 -11 -17 -8 -9 10 21 38 40 38 9 0 16 7 16 15 0 8 5 15
10 15 6 0 10 -7 10 -15z m2266 -8 c19 -17 29 -37 34 -72 9 -61 4 -75 -25 -75
-25 0 -35 17 -35 59 0 32 -16 51 -45 51 -12 0 -26 -5 -33 -12 -13 -13 -16 -96
-4 -116 5 -7 37 -32 73 -55 35 -23 69 -53 76 -67 15 -30 17 -154 3 -181 -25
-45 -116 -64 -156 -31 -33 26 -44 55 -44 112 0 50 1 51 28 48 24 -3 28 -8 32
-48 7 -56 15 -70 44 -70 34 0 46 19 46 73 0 64 -10 79 -75 116 -74 42 -95 78
-95 161 0 68 13 95 55 118 35 20 91 14 121 -11z m2090 -2 c48 -31 52 -62 37
-250 -7 -93 -18 -183 -24 -198 -18 -44 -61 -60 -135 -52 -34 3 -64 12 -67 18
-3 10 27 493 32 506 3 11 134 -9 157 -24z m2004 10 c0 -8 -7 -15 -15 -15 -26
0 -18 20 13 29 1 1 2 -6 2 -14z m-4412 -278 c32 -133 56 -248 54 -255 -3 -7
-16 -12 -30 -10 -22 3 -28 11 -41 63 -17 63 -29 73 -77 61 -22 -6 -24 -11 -24
-71 0 -55 -3 -66 -21 -76 -41 -22 -43 -5 -31 262 6 139 14 254 16 257 8 8 70
19 83 14 6 -2 38 -112 71 -245z m2774 237 c5 -3 8 -17 8 -31 0 -24 -2 -25 -52
-21 l-53 3 -9 -78 c-5 -43 -6 -81 -2 -84 3 -3 23 -9 43 -12 32 -5 38 -10 38
-31 0 -23 -4 -25 -45 -25 l-45 0 -8 -73 c-11 -86 -6 -102 28 -102 37 0 65 -17
65 -39 0 -27 -18 -30 -91 -17 l-64 11 2 85 c1 81 17 294 29 389 l6 43 71 -7
c39 -3 75 -9 79 -11z m1688 -4 c0 -5 -4 -10 -10 -10 -5 0 -10 5 -10 10 0 6 5
10 10 10 6 0 10 -4 10 -10z m-6510 -20 c0 -5 -7 -10 -15 -10 -8 0 -15 5 -15
10 0 6 7 10 15 10 8 0 15 -4 15 -10z m5106 -21 c36 -11 69 -44 77 -77 5 -22
-7 -123 -19 -165 -3 -10 -17 -28 -31 -41 l-26 -24 17 -101 c17 -103 16 -121
-8 -121 -25 0 -35 26 -48 119 -19 148 -60 161 -72 23 -10 -103 -13 -112 -42
-112 -21 0 -24 5 -24 33 1 56 47 464 54 476 8 12 66 7 122 -10z m-3422 3 c9
-14 58 -482 52 -497 -6 -16 -41 -21 -49 -7 -3 4 -12 81 -22 172 -24 241 -33
246 -34 20 -1 -107 -5 -201 -10 -208 -4 -8 -23 -14 -41 -15 l-33 -2 -48 188
c-67 268 -76 262 -35 -23 24 -167 23 -190 -10 -190 -23 0 -31 34 -59 250 -14
113 -28 214 -31 225 -7 34 11 49 63 49 l48 1 40 -160 c60 -237 59 -236 65 -10
l5 199 25 7 c36 10 68 10 74 1z m4936 -2 c0 -5 -4 -10 -10 -10 -5 0 -10 5 -10
10 0 6 5 10 10 10 6 0 10 -4 10 -10z m70 -40 c0 -5 -4 -10 -10 -10 -5 0 -10 5
-10 10 0 6 5 10 10 10 6 0 10 -4 10 -10z m-6950 -20 c0 -5 -7 -10 -15 -10 -8
0 -15 5 -15 10 0 6 7 10 15 10 8 0 15 -4 15 -10z m7120 -45 c0 -8 -4 -15 -10
-15 -5 0 -10 7 -10 15 0 8 5 15 10 15 6 0 10 -7 10 -15z m84 -37 c6 -4 7 -10
3 -15 -10 -9 -27 16 -26 37 1 13 1 13 6 0 3 -8 11 -18 17 -22z m-6315 -47 c1
-35 -5 -22 -12 24 -5 28 -4 34 3 20 5 -11 9 -31 9 -44z m-1482 17 c-3 -7 -5
-2 -5 12 0 14 2 19 5 13 2 -7 2 -19 0 -25z m243 -58 c0 -5 -4 -10 -10 -10 -5
0 -10 5 -10 10 0 6 5 10 10 10 6 0 10 -4 10 -10z m7800 0 c0 -5 -4 -10 -10
-10 -5 0 -10 5 -10 10 0 6 5 10 10 10 6 0 10 -4 10 -10z m-7870 -20 c0 -5 -4
-10 -10 -10 -5 0 -10 5 -10 10 0 6 5 10 10 10 6 0 10 -4 10 -10z m7910 0 c0
-5 -4 -10 -10 -10 -5 0 -10 5 -10 10 0 6 5 10 10 10 6 0 10 -4 10 -10z m-7980
-45 c0 -8 -4 -15 -10 -15 -5 0 -10 7 -10 15 0 8 5 15 10 15 6 0 10 -7 10 -15z
m8170 -99 c0 -2 3 -11 6 -20 4 -11 1 -16 -10 -16 -9 0 -16 2 -16 4 0 2 -3 11
-6 20 -4 11 -1 16 10 16 9 0 16 -2 16 -4z m140 -471 c0 -8 -4 -15 -10 -15 -5
0 -10 7 -10 15 0 8 5 15 10 15 6 0 10 -7 10 -15z m-5393 -1 c-3 -3 -12 -4 -19
-1 -8 3 -5 6 6 6 11 1 17 -2 13 -5z m-124 -21 c-7 -2 -19 -2 -25 0 -7 3 -2 5
12 5 14 0 19 -2 13 -5z m-110 -20 c-7 -2 -19 -2 -25 0 -7 3 -2 5 12 5 14 0 19
-2 13 -5z m-100 -20 c-7 -2 -19 -2 -25 0 -7 3 -2 5 12 5 14 0 19 -2 13 -5z
m5207 -3 c-35 -24 -54 -31 -30 -11 14 11 30 21 35 21 6 0 3 -5 -5 -10z m-5253
-6 c-3 -3 -12 -4 -19 -1 -8 3 -5 6 6 6 11 1 17 -2 13 -5z m-67 -14 c-34 -11
-60 -11 -35 0 11 5 29 8 40 8 16 0 15 -2 -5 -8z m-85 -20 c-11 -5 -29 -8 -40
-8 -16 0 -15 2 5 8 34 11 60 11 35 0z m5925 0 c0 -5 -4 -10 -10 -10 -5 0 -10
5 -10 10 0 6 5 10 10 10 6 0 10 -4 10 -10z m-6005 -20 c-11 -5 -27 -9 -35 -9
-9 0 -8 4 5 9 11 5 27 9 35 9 9 0 8 -4 -5 -9z m-65 -14 c0 -2 -15 -9 -32 -15
-30 -10 -31 -9 -14 4 18 14 46 20 46 11z m6020 -51 c0 -8 -4 -15 -10 -15 -5 0
-10 7 -10 15 0 8 5 15 10 15 6 0 10 -7 10 -15z m-6056 -155 c18 -81 32 -137
47 -186 5 -17 9 -48 9 -70 0 -41 0 -41 -51 -52 -52 -12 -84 -9 -36 3 14 4 33
15 41 24 14 16 13 29 -9 143 -14 70 -27 159 -30 200 -5 80 1 67 29 -62z m5326
116 c0 -2 -7 -7 -16 -10 -8 -3 -12 -2 -9 4 6 10 25 14 25 6z m-1718 -223 c-20
-109 -26 -166 -19 -178 8 -15 6 -15 -12 -6 -12 7 -21 21 -21 32 0 20 4 37 40
194 10 44 22 94 26 110 3 17 8 26 10 20 2 -5 -9 -83 -24 -172z m1578 133 c0
-2 -8 -10 -17 -17 -16 -13 -17 -12 -4 4 13 16 21 21 21 13z m764 -22 c10 -25
7 -34 -9 -28 -8 4 -15 15 -15 25 0 23 16 25 24 3z m-8252 -111 c2 -56 0 -96
-4 -90 -7 11 -10 202 -3 195 3 -2 6 -50 7 -105z m769 -36 c-86 -339 -158 -704
-142 -720 5 -5 73 23 152 62 182 88 564 239 576 228 2 -2 -18 -12 -44 -22
-259 -94 -324 -121 -542 -227 -90 -43 -164 -78 -166 -76 -22 26 -21 52 0 184
30 175 87 394 167 637 22 64 21 20 -1 -66z m6719 -57 c12 -41 26 -86 30 -100
4 -14 13 -45 20 -70 7 -25 16 -54 20 -65 7 -17 9 -14 9 13 1 34 21 46 21 12 0
-18 16 -26 43 -21 5 1 11 -8 14 -19 7 -27 14 -25 43 15 29 39 40 44 40 15 0
-11 -5 -20 -11 -20 -6 0 -3 -7 6 -17 14 -14 18 -14 26 -2 6 10 9 10 9 2 0 -18
68 -17 86 1 8 8 14 22 14 31 0 9 7 24 16 32 13 14 17 14 25 2 5 -8 6 -22 3
-31 -3 -9 -2 -33 2 -53 4 -25 11 -35 25 -35 12 0 19 -7 19 -19 0 -11 6 -22 13
-25 10 -5 10 -7 0 -12 -20 -9 -15 -34 7 -34 11 0 20 -4 20 -8 0 -4 -9 -14 -20
-22 -18 -13 -20 -26 -20 -117 0 -62 4 -103 10 -103 6 0 10 -4 10 -10 0 -5 -9
-10 -20 -10 -16 0 -20 -7 -20 -30 0 -16 -4 -30 -9 -30 -5 0 -12 -19 -16 -42
-4 -24 -16 -50 -26 -59 -11 -9 -19 -22 -19 -28 0 -14 -86 -101 -100 -101 -5 0
-10 -7 -10 -16 0 -12 -9 -14 -37 -12 l-38 3 3 85 c2 53 0 80 -6 72 -6 -10 -13
5 -23 48 -11 51 -19 64 -42 77 -23 11 -26 17 -17 29 8 9 10 30 5 61 -10 70
-68 352 -114 553 -23 96 -41 182 -40 190 0 20 23 -39 49 -130z m-5097 -125
c-3 -8 -9 -15 -14 -15 -10 0 -12 24 -3 33 11 11 24 -3 17 -18z m-193 -5 c-14
-4 -34 -8 -45 -8 l-20 -1 20 9 c11 5 31 8 45 8 l25 0 -25 -8z m-85 -20 c-11
-5 -27 -9 -35 -9 -9 0 -8 4 5 9 11 5 27 9 35 9 9 0 8 -4 -5 -9z m295 -21 c0
-5 11 -9 25 -9 14 0 25 5 25 12 0 6 2 9 5 6 9 -9 -7 -38 -21 -38 -8 0 -14 -7
-14 -15 0 -8 -4 -15 -10 -15 -5 0 -10 -9 -10 -20 0 -20 1 -19 25 5 14 14 36
24 48 24 20 -1 20 -2 2 -6 -11 -3 -28 -15 -37 -27 -10 -11 -22 -26 -27 -32 -5
-6 -11 -20 -14 -30 -3 -11 -5 -4 -6 16 -1 20 -5 30 -9 23 -4 -6 -7 6 -7 28 0
21 3 39 7 39 5 0 8 8 8 18 0 14 -2 15 -10 2 -8 -12 -10 -9 -10 12 0 20 4 26
15 22 8 -4 15 -10 15 -15z m-365 1 c-11 -5 -29 -9 -40 -9 l-20 0 20 9 c11 5
29 9 40 9 l20 0 -20 -9z m-98 -26 c-3 -3 -12 -4 -19 -1 -8 3 -5 6 6 6 11 1 17
-2 13 -5z m-57 -14 c-8 -5 -22 -9 -30 -9 -10 0 -8 3 5 9 27 12 43 12 25 0z
m680 -13 c0 -12 -9 -29 -20 -37 -12 -8 -22 -31 -26 -59 -4 -26 -15 -53 -25
-62 -11 -9 -19 -22 -19 -29 0 -8 -9 -11 -28 -7 -24 5 -30 2 -40 -21 l-12 -27
5 30 c3 17 8 47 12 68 3 20 10 37 14 37 5 0 9 14 9 30 0 26 4 30 28 30 16 0
34 8 42 20 8 11 20 20 27 20 7 0 13 7 13 15 0 8 5 15 10 15 6 0 10 -10 10 -23z
m-2160 -92 c0 -8 5 -15 10 -15 6 0 10 9 10 20 0 11 7 20 15 20 8 0 15 -4 15
-10 0 -5 9 -10 20 -10 22 0 27 16 8 23 -8 2 -9 8 -4 13 5 5 11 4 13 -3 3 -7
11 -13 19 -13 8 0 14 -4 14 -10 0 -5 7 -10 15 -10 9 0 15 9 15 23 0 16 3 19 9
8 13 -21 41 -6 34 18 -4 16 -1 19 15 14 17 -4 19 -9 12 -28 -5 -12 -12 -56
-16 -96 -3 -41 -10 -78 -14 -84 -3 -5 -8 -30 -9 -54 -2 -24 -7 -56 -13 -70 -5
-14 -11 -57 -14 -96 -2 -38 -8 -71 -14 -73 -5 -2 -10 -12 -10 -22 0 -10 -4
-22 -10 -25 -5 -3 -10 -15 -10 -26 0 -12 -7 -19 -20 -19 -15 0 -20 -7 -20 -24
0 -14 5 -28 10 -31 6 -3 10 -19 10 -36 0 -22 -5 -29 -20 -29 -13 0 -20 7 -20
20 0 15 -7 20 -25 20 -18 0 -25 5 -25 20 0 13 -7 20 -20 20 -13 0 -20 7 -20
20 0 13 -7 20 -19 20 -10 0 -22 7 -25 16 -9 23 -7 36 4 29 6 -4 10 8 10 29 0
20 -4 36 -10 36 -5 0 -10 14 -10 30 0 17 -4 30 -10 30 -6 0 -10 57 -10 150 0
93 4 150 10 150 6 0 10 7 10 16 0 9 10 26 23 37 15 13 18 21 10 24 -7 3 -13
18 -13 34 l0 30 35 -35 c19 -20 35 -42 35 -51z m1393 78 c-7 -2 -19 -2 -25 0
-7 3 -2 5 12 5 14 0 19 -2 13 -5z m-1333 -18 c0 -8 -2 -15 -4 -15 -2 0 -6 7
-10 15 -3 8 -1 15 4 15 6 0 10 -7 10 -15z m5240 2 c0 -7 9 -19 20 -27 11 -8
20 -22 20 -32 0 -10 5 -18 10 -18 6 0 10 -9 10 -20 0 -13 -7 -20 -20 -20 -13
0 -20 7 -20 20 0 11 -4 20 -10 20 -5 0 -10 9 -10 20 0 15 -7 20 -25 20 -43 0
-31 46 13 49 6 1 12 -5 12 -12z m-3977 -4 c-7 -2 -19 -2 -25 0 -7 3 -2 5 12 5
14 0 19 -2 13 -5z m-64 -17 c-2 -2 -17 -6 -34 -10 -22 -5 -26 -4 -15 4 14 9
59 15 49 6z m-114 -36 c-27 -11 -54 -18 -60 -17 -11 4 72 35 95 36 8 0 -7 -9
-35 -19z m-85 -30 c-8 -5 -22 -10 -30 -10 -13 0 -13 1 0 10 8 5 22 10 30 10
13 0 13 -1 0 -10z m-60 -20 c-8 -5 -22 -9 -30 -9 -10 0 -8 3 5 9 27 12 43 12
25 0z m1117 -52 c-3 -8 -6 -5 -6 6 -1 11 2 17 5 13 3 -3 4 -12 1 -19z m-2530
-40 c-3 -8 -6 -5 -6 6 -1 11 2 17 5 13 3 -3 4 -12 1 -19z m263 -38 c0 -5 -4
-10 -10 -10 -5 0 -10 5 -10 10 0 6 5 10 10 10 6 0 10 -4 10 -10z m20 -60 c0
-5 -4 -10 -10 -10 -5 0 -10 -7 -10 -15 0 -8 -4 -15 -10 -15 -14 0 -13 18 3 35
14 17 27 19 27 5z m7710 -45 c0 -8 -4 -15 -10 -15 -5 0 -10 7 -10 15 0 8 5 15
10 15 6 0 10 -7 10 -15z m-7710 -65 c0 -5 -9 -10 -20 -10 -11 0 -20 5 -20 10
0 6 9 10 20 10 11 0 20 -4 20 -10z m7650 -190 c0 -5 -4 -10 -10 -10 -5 0 -10
5 -10 10 0 6 5 10 10 10 6 0 10 -4 10 -10z m-7560 -60 c0 -5 -4 -10 -10 -10
-5 0 -10 5 -10 10 0 6 5 10 10 10 6 0 10 -4 10 -10z m7510 -20 c0 -5 -4 -10
-10 -10 -5 0 -10 5 -10 10 0 6 5 10 10 10 6 0 10 -4 10 -10z m-7470 -45 c0 -8
-4 -15 -10 -15 -5 0 -10 7 -10 15 0 8 5 15 10 15 6 0 10 -7 10 -15z m7430 0
c0 -8 -9 -15 -20 -15 -11 0 -20 7 -20 15 0 8 9 15 20 15 11 0 20 -7 20 -15z
m-7843 -27 c-3 -8 -6 -5 -6 6 -1 11 2 17 5 13 3 -3 4 -12 1 -19z m7793 7 c0
-8 -7 -15 -15 -15 -8 0 -15 7 -15 15 0 8 7 15 15 15 8 0 15 -7 15 -15z m-930
-170 c0 -8 -4 -15 -10 -15 -5 0 -10 7 -10 15 0 8 5 15 10 15 6 0 10 -7 10 -15z
m-6859 -122 c-12 -20 -14 -14 -5 12 4 9 9 14 11 11 3 -2 0 -13 -6 -23z"/>
<path d="M3960 9720 c-270 -69 -416 -195 -464 -398 -8 -34 -24 -75 -36 -92
-36 -51 -23 -62 67 -54 43 4 76 4 73 1 -3 -4 -45 -10 -93 -15 -112 -10 -120
-4 -82 73 14 30 29 80 32 112 6 63 -4 64 -27 3 -7 -19 -31 -77 -53 -128 -22
-51 -37 -95 -34 -99 4 -3 19 0 35 6 30 13 97 4 71 -9 -19 -10 -130 -33 -134
-28 -3 2 15 51 39 109 24 57 51 135 60 172 26 104 21 277 -8 277 -17 0 -154
-143 -193 -200 -85 -126 -113 -218 -120 -393 -6 -135 -5 -138 16 -144 23 -6
29 -23 8 -23 -16 0 -47 32 -47 48 0 42 -48 -56 -67 -137 -5 -21 -3 -23 13 -16
38 17 154 17 225 0 39 -10 68 -19 66 -22 -3 -2 -43 2 -90 8 -82 12 -181 5
-229 -16 -24 -10 -23 10 2 62 53 110 82 311 60 416 -6 31 -16 60 -23 64 -14 8
-138 -123 -188 -201 -44 -66 -76 -147 -90 -224 -8 -40 -6 -66 5 -113 9 -33 16
-74 16 -90 0 -22 5 -29 20 -29 11 0 23 6 26 14 12 31 64 29 64 -3 0 -33 -30
-61 -66 -61 -33 0 -45 -12 -24 -25 18 -11 10 -26 -12 -23 -22 3 -23 7 -20 69
4 65 -12 149 -27 149 -4 0 -8 -48 -8 -107 0 -70 -6 -130 -17 -172 -18 -65 -16
-81 6 -64 16 12 119 33 165 33 52 0 31 -17 -30 -24 -30 -4 -84 -22 -120 -41
-67 -33 -87 -32 -68 3 24 44 43 198 38 302 -5 113 -31 213 -57 218 -17 3 -127
-155 -159 -229 -32 -72 -51 -158 -50 -229 0 -88 60 -324 83 -328 18 -4 21 -18
5 -28 -17 -10 -28 8 -45 77 -18 76 -33 109 -49 109 -7 0 -15 19 -18 43 -7 58
-46 157 -62 157 -15 0 -90 -124 -130 -215 -34 -77 -55 -172 -55 -257 0 -54 6
-81 30 -133 16 -36 37 -96 46 -135 15 -69 30 -85 52 -57 7 8 6 18 -4 31 -21
29 -17 49 14 79 34 32 38 33 45 6 6 -22 -11 -69 -25 -69 -4 0 -8 -7 -8 -15 0
-16 48 -44 95 -56 27 -6 28 -7 5 -8 -14 0 -43 6 -65 14 -37 13 -41 13 -62 -6
-12 -12 -26 -18 -31 -15 -5 3 -15 34 -21 68 -7 35 -29 99 -50 143 -21 44 -42
94 -46 110 -8 27 -9 28 -12 8 -3 -13 9 -60 26 -106 40 -107 67 -215 76 -299 3
-38 8 -68 10 -68 1 0 27 15 57 33 29 17 74 40 98 51 25 10 53 22 62 27 10 5
25 9 33 9 20 0 19 17 -2 29 -17 10 -17 10 1 11 29 0 121 55 214 128 59 46 89
77 103 108 12 24 27 48 35 55 8 6 14 20 14 30 0 13 -13 20 -57 29 -82 17 -84
18 -26 19 104 2 131 -35 75 -101 -15 -18 -33 -45 -39 -59 -12 -29 -189 -166
-251 -195 -75 -34 -46 -41 74 -18 53 10 49 -15 -26 -171 -57 -117 -80 -154
-127 -202 -48 -49 -70 -63 -126 -81 -37 -12 -92 -22 -121 -22 -47 0 -57 -3
-74 -27 -11 -15 -24 -23 -30 -19 -17 10 -15 26 2 26 21 0 30 20 17 33 -13 13
-15 54 -2 61 4 3 11 19 14 36 4 16 11 30 17 30 18 0 23 -29 12 -72 -13 -51 -6
-58 58 -57 92 0 204 62 263 145 75 106 149 276 129 296 -28 28 -208 -41 -341
-132 -33 -22 -64 -40 -69 -40 -5 0 -14 48 -21 108 -18 165 -58 290 -120 371
-23 30 -37 22 -63 -38 -36 -84 -58 -208 -58 -336 0 -132 1 -133 75 -231 40
-52 75 -124 75 -152 -1 -9 -16 15 -35 53 -62 130 -115 164 -56 37 34 -75 53
-135 71 -224 6 -32 14 -58 16 -58 3 0 17 14 31 30 14 17 50 45 81 63 63 37
245 117 266 117 7 0 17 -10 23 -22 25 -56 -90 -333 -166 -400 -69 -61 -82 -69
-99 -65 -13 3 -10 7 11 15 37 16 117 97 150 152 27 48 73 192 78 250 4 34 3
35 -28 34 -18 -1 -77 -23 -130 -49 -80 -39 -110 -60 -166 -118 -37 -39 -70
-68 -73 -64 -3 3 -10 37 -15 76 -17 142 -65 282 -131 388 -26 42 -44 60 -53
56 -38 -14 -81 -253 -72 -393 9 -132 27 -178 96 -246 33 -32 70 -80 82 -106
23 -49 41 -60 56 -33 7 13 116 36 163 34 32 -1 -26 -18 -65 -18 -40 -1 -105
-32 -105 -51 0 -5 -6 -10 -13 -10 -13 0 -47 50 -47 70 0 7 -31 45 -69 86 -85
91 -109 158 -127 349 l-8 80 -7 -65 c-4 -36 -7 -101 -8 -146 l-1 -81 87 -114
c90 -118 119 -171 150 -270 10 -32 21 -59 25 -59 4 0 20 19 37 43 56 80 190
187 236 187 6 0 26 7 43 16 39 19 76 15 80 -10 6 -29 -66 -263 -109 -352 -49
-105 -112 -164 -198 -188 -46 -13 -67 -25 -90 -54 l-31 -37 -51 55 c-61 66
-142 178 -174 240 -20 40 -67 180 -93 280 l-9 35 -6 -45 c-15 -113 -23 -230
-19 -279 l4 -55 14 33 c9 22 19 31 31 29 22 -4 159 -160 216 -246 25 -37 58
-97 73 -135 l28 -67 22 46 c12 26 47 71 76 101 46 48 212 179 262 208 18 10
42 118 63 285 6 41 20 98 33 125 13 28 27 73 31 100 26 160 46 255 52 249 4
-4 7 -2 7 4 0 6 6 17 13 24 21 23 87 162 87 186 0 12 5 22 10 22 6 0 10 10 10
21 0 12 11 32 25 45 14 13 25 28 25 34 0 5 4 10 9 10 13 0 71 87 71 106 0 7 3
14 8 14 4 0 18 29 30 64 13 35 34 77 48 93 13 15 24 33 24 39 0 6 16 23 35 38
19 15 37 36 40 47 4 10 15 19 26 19 12 0 19 7 19 20 0 10 14 35 30 53 17 19
30 41 30 48 0 8 16 28 35 44 19 17 35 38 35 48 0 10 8 17 20 17 11 0 20 5 20
10 0 6 7 10 15 10 8 0 15 5 15 10 0 20 48 60 64 54 9 -3 16 -1 16 6 0 12 24
40 35 40 11 0 35 28 35 40 0 13 45 60 58 60 12 0 22 24 22 51 0 10 6 19 13 19
7 0 19 9 27 20 8 11 25 20 38 20 23 0 63 17 72 30 3 5 14 10 25 12 20 3 65 46
65 61 0 4 7 7 15 7 8 0 15 7 15 16 0 9 8 24 18 33 11 10 24 45 32 88 11 59 16
71 26 62 11 -9 15 -7 20 7 11 36 38 79 66 106 15 14 28 31 28 36 0 6 8 8 19 5
13 -3 20 2 25 21 4 17 13 26 26 26 13 0 20 7 20 20 0 11 4 20 10 20 5 0 9 10
7 23 -2 17 3 22 21 20 22 -3 31 12 11 19 -6 2 -5 14 5 33 9 17 16 45 16 63 0
17 5 32 10 32 6 0 10 14 10 30 0 17 5 30 10 30 6 0 10 21 10 48 0 26 5 85 11
132 7 47 13 130 13 185 1 55 6 116 10 135 l8 35 -19 -25 c-11 -14 -42 -67 -68
-117 -63 -119 -166 -256 -222 -294 -60 -41 -64 -32 -5 11 96 72 244 308 268
429 6 28 4 31 -17 31 -13 -1 -76 -14 -139 -30z m-175 -480 c-3 -5 -12 -10 -18
-10 -7 0 -6 4 3 10 19 12 23 12 15 0z m-108 -46 c-3 -3 -12 -4 -19 -1 -8 3 -5
6 6 6 11 1 17 -2 13 -5z m-32 -102 c108 -36 145 -53 145 -71 0 -15 -87 -87
-173 -143 -66 -42 -67 -32 -1 13 70 49 134 108 134 125 0 14 -107 58 -205 85
l-70 19 55 -4 c30 -3 82 -13 115 -24z m-425 -78 c0 -21 -57 -77 -73 -71 -23 7
-12 41 22 64 40 27 51 29 51 7z m25 -154 c44 -27 73 -50 66 -50 -8 0 -42 18
-77 40 -35 22 -68 40 -73 40 -5 0 -13 5 -16 10 -14 23 26 7 100 -40z m222 -46
c-3 -3 -12 -4 -19 -1 -8 3 -5 6 6 6 11 1 17 -2 13 -5z m-49 -75 c12 -5 22 -17
22 -28 0 -23 -153 -162 -210 -191 -55 -28 -50 -18 7 15 54 32 173 149 173 171
0 8 -19 23 -42 34 l-43 19 35 -6 c19 -3 45 -10 58 -14z m-515 -225 c37 -27 63
-37 103 -41 29 -3 51 -10 48 -14 -3 -5 11 -16 30 -26 25 -11 36 -23 36 -38 0
-29 -88 -152 -143 -201 -45 -40 -119 -84 -140 -84 -7 0 8 10 32 23 25 12 68
44 97 70 57 52 134 161 134 189 0 24 -31 38 -82 38 -48 0 -60 6 -76 36 -6 11
-36 33 -66 48 -31 16 -56 30 -56 32 0 14 40 -1 83 -32z m210 -41 c-7 -2 -19
-2 -25 0 -7 3 -2 5 12 5 14 0 19 -2 13 -5z m-673 -333 c0 -52 -5 -113 -10
-135 -5 -22 -8 -41 -6 -42 1 -1 20 6 42 17 54 27 150 50 199 49 35 -1 31 -3
-37 -20 -85 -20 -158 -54 -206 -94 -38 -32 -45 -21 -25 36 10 28 18 93 21 177
5 152 22 161 22 12z m154 73 c-10 -29 -34 -43 -34 -19 0 8 5 27 10 42 15 38
38 16 24 -23z m3 -94 c15 -7 44 -15 63 -19 34 -7 34 -8 5 -8 -32 0 -142 36
-113 37 9 1 29 -4 45 -10z m213 -19 c-8 -5 -28 -9 -45 -9 -30 2 -30 2 5 9 51
11 57 11 40 0z m-745 -1290 c11 -18 -15 -110 -31 -110 -17 0 -19 44 -3 89 11
32 23 39 34 21z"/>
<path d="M3160 8980 c0 -5 5 -10 10 -10 6 0 10 5 10 10 0 6 -4 10 -10 10 -5 0
-10 -4 -10 -10z"/>
<path d="M6027 9723 c-15 -25 120 -262 204 -357 42 -47 136 -119 197 -150 78
-40 282 -73 282 -46 0 6 -11 27 -24 48 -14 20 -32 67 -40 105 -45 197 -184
334 -387 382 -85 20 -224 31 -232 18z"/>
<path d="M5975 9633 c-15 -167 -10 -246 18 -266 8 -6 7 -7 -4 -4 -9 3 -22 1
-30 -4 -11 -7 -11 -9 3 -9 34 0 32 -45 -5 -132 -20 -46 -49 -119 -65 -163 -78
-207 -146 -387 -172 -455 -17 -41 -51 -136 -77 -210 -67 -188 -59 -178 -122
-152 -29 12 -96 30 -149 41 -53 11 -119 24 -147 30 -47 9 -45 10 25 5 87 -6
180 -27 251 -54 65 -26 67 -26 84 13 19 44 280 749 320 867 18 52 36 103 40
113 15 37 -21 13 -124 -80 -165 -152 -402 -394 -398 -407 2 -6 15 -17 30 -24
35 -17 77 -69 77 -95 0 -18 -4 -15 -18 13 -21 43 -78 76 -114 67 -19 -5 -27
-15 -32 -39 -10 -48 4 -147 26 -191 10 -21 16 -42 13 -47 -3 -6 1 -10 10 -10
22 0 58 41 77 87 40 97 37 92 37 57 1 -40 -22 -105 -50 -143 -58 -78 -169 -80
-242 -3 -78 82 -89 354 -19 491 21 43 37 60 77 81 37 20 49 32 47 46 -6 30
-171 451 -213 542 -23 49 -44 82 -51 80 -6 -2 -21 -33 -33 -69 -12 -35 -66
-174 -119 -308 -53 -134 -96 -253 -96 -263 0 -10 8 -21 18 -24 44 -14 79 -37
101 -69 13 -20 22 -38 19 -40 -3 -3 -16 10 -29 29 -30 44 -68 66 -112 66 -33
0 -36 -2 -41 -37 -9 -60 -4 -143 10 -151 7 -4 15 -19 19 -33 6 -25 4 -27 -41
-34 -35 -5 -57 -16 -81 -40 -18 -18 -33 -28 -33 -21 0 15 46 59 78 75 28 15
28 37 1 52 -12 6 -126 114 -255 240 -212 208 -279 263 -259 212 53 -136 85
-226 81 -231 -3 -2 -10 6 -15 19 -34 90 -61 150 -86 189 -28 44 -43 45 -27 1
4 -13 5 -53 0 -90 -15 -128 -19 -227 -7 -211 9 13 10 12 5 -3 -3 -10 -6 -25
-6 -33 0 -8 -7 -14 -15 -14 -9 0 -15 -10 -15 -26 0 -14 4 -23 10 -19 7 4 9 -7
5 -32 -3 -22 0 -54 9 -78 13 -34 15 -36 17 -15 l1 25 8 -25 c4 -14 8 -40 9
-58 1 -19 5 -31 11 -27 6 4 10 -5 10 -19 0 -14 5 -26 10 -26 6 0 10 -9 10 -20
0 -11 5 -20 10 -20 6 0 10 -26 11 -57 0 -32 3 -52 6 -45 7 17 33 -32 33 -62 0
-12 4 -26 8 -31 5 -6 16 -31 26 -57 10 -26 25 -50 36 -53 12 -4 16 -12 13 -24
-3 -11 1 -29 8 -42 7 -13 16 -37 20 -54 12 -47 33 -99 47 -113 6 -7 12 -20 12
-28 0 -9 7 -22 15 -30 8 -9 20 -35 26 -60 8 -32 16 -44 30 -44 11 0 19 -6 19
-14 0 -7 10 -16 23 -20 34 -9 97 -7 97 3 0 9 49 22 88 23 13 0 22 6 22 15 0
13 3 13 16 2 13 -10 17 -10 24 1 7 11 52 14 237 13 152 -1 229 -5 231 -12 2
-6 17 -11 33 -11 16 0 29 -4 29 -10 0 -5 13 -10 29 -10 17 0 31 -6 35 -15 4
-11 13 -14 32 -9 17 4 29 2 35 -7 6 -11 12 -9 27 9 11 12 27 22 36 22 9 0 16
4 16 9 0 5 6 16 14 24 18 17 56 101 56 121 0 9 7 16 15 16 8 0 15 9 15 19 0
11 7 26 15 35 8 8 15 28 15 44 0 17 4 32 9 34 5 2 11 12 13 23 1 11 7 23 11
26 4 3 17 39 28 80 12 41 27 81 35 90 8 8 14 22 14 29 0 7 3 10 7 6 7 -7 31
63 56 162 6 23 14 42 19 42 4 0 8 9 8 20 0 11 5 29 10 40 6 11 15 29 20 40 6
11 10 31 10 45 0 14 5 25 10 25 6 0 10 27 10 60 0 33 3 60 8 60 4 0 7 27 6 60
-1 42 4 66 15 78 20 22 48 17 56 -9 4 -10 13 -19 21 -19 20 0 17 -13 -6 -30
-11 -8 -20 -18 -20 -22 0 -4 9 -8 20 -8 11 0 20 -4 20 -10 0 -5 9 -10 20 -10
13 0 20 -7 20 -20 0 -11 5 -20 10 -20 6 0 10 -9 10 -20 0 -11 5 -20 10 -20 6
0 10 -7 10 -15 0 -8 7 -15 15 -15 8 0 15 -4 15 -10 0 -5 9 -10 20 -10 13 0 20
-7 20 -20 0 -14 7 -20 21 -20 17 0 20 -5 17 -25 -3 -16 -1 -25 7 -25 13 0 25
-43 25 -89 0 -15 9 -33 20 -41 11 -8 20 -22 20 -32 0 -10 7 -18 15 -18 8 0 15
-7 15 -15 0 -17 35 -55 50 -55 6 0 10 -4 10 -9 0 -5 18 -12 40 -16 25 -4 40
-12 40 -21 0 -8 10 -14 25 -14 14 0 25 -4 25 -10 0 -5 12 -10 26 -10 19 0 41
-15 75 -51 27 -28 49 -58 49 -65 0 -8 3 -13 8 -12 7 2 68 -48 113 -94 15 -15
38 -32 53 -38 14 -5 26 -16 26 -24 0 -8 14 -20 30 -28 17 -7 30 -19 30 -27 0
-7 8 -21 19 -30 10 -9 22 -31 25 -49 4 -18 16 -37 27 -42 10 -6 19 -17 19 -26
0 -15 12 -30 98 -119 28 -30 52 -59 52 -63 0 -5 11 -25 23 -44 13 -19 27 -46
31 -61 3 -14 17 -37 31 -51 14 -14 25 -32 25 -41 0 -9 11 -27 25 -41 14 -14
25 -32 25 -40 0 -8 9 -25 21 -37 25 -27 66 -115 75 -162 3 -19 10 -35 15 -35
5 0 16 -25 24 -55 9 -30 21 -55 26 -55 5 0 9 -8 9 -18 0 -10 7 -27 15 -38 8
-12 21 -54 30 -95 33 -157 37 -176 62 -244 15 -38 30 -73 35 -76 6 -3 9 -8 7
-10 -5 -9 12 -178 25 -248 8 -41 12 -89 9 -106 -7 -44 13 -54 21 -10 11 58 40
49 193 -58 83 -58 149 -131 176 -196 l14 -33 51 88 c28 49 49 91 46 93 -2 2
-15 -6 -28 -18 l-24 -23 -52 41 c-45 36 -128 71 -167 71 -34 0 -127 174 -182
340 -18 52 -37 104 -42 116 -6 12 -9 32 -7 45 3 21 8 24 48 23 95 -1 249 -102
307 -202 14 -23 27 -41 29 -39 3 2 22 40 43 84 22 44 67 124 101 178 96 153
110 186 109 252 -1 61 -2 60 -30 -37 -20 -70 -33 -92 -97 -156 -42 -43 -64
-75 -76 -112 -10 -30 -24 -52 -32 -52 -8 0 -14 4 -14 10 0 18 -57 39 -117 43
-32 3 -74 12 -93 22 -63 32 -125 107 -173 206 -105 219 -118 251 -105 266 17
21 82 9 177 -31 91 -39 148 -74 206 -127 l42 -39 5 72 c7 97 46 210 118 340
58 103 68 128 53 128 -10 0 -171 -317 -179 -352 -10 -47 -29 -53 -59 -20 -23
26 -34 30 -93 34 -90 5 -173 44 -234 109 -31 33 -71 97 -118 191 -90 179 -89
181 61 144 121 -31 210 -70 262 -116 20 -17 37 -30 38 -29 0 2 3 40 6 84 3 58
19 122 54 230 26 82 47 151 45 152 -6 6 -31 -40 -65 -117 -24 -54 -33 -89 -33
-127 0 -65 -15 -81 -52 -52 -24 19 -30 19 -80 8 -122 -27 -237 7 -333 99 -63
60 -182 222 -176 238 10 27 69 39 193 39 121 0 127 -1 189 -33 l64 -32 -7 37
c-3 21 -6 56 -7 78 0 33 -2 36 -9 19 -14 -34 -30 -38 -61 -15 -29 22 -30 22
-99 5 -146 -35 -273 5 -389 124 -36 37 -79 94 -96 126 -29 56 -30 57 -11 72
11 7 31 14 45 14 14 1 40 7 56 14 l30 13 -45 7 c-65 11 -108 25 -170 56 -59
29 -253 158 -258 170 -7 17 56 52 144 80 110 35 224 41 275 14 17 -8 33 -13
36 -10 3 2 -7 34 -21 70 -14 35 -26 69 -26 75 0 5 -5 22 -11 38 -9 25 -12 26
-20 10 -6 -9 -7 -22 -4 -27 4 -6 4 -19 0 -29 -4 -14 -18 -20 -58 -23 -38 -3
-70 -15 -121 -46 -58 -35 -78 -42 -122 -42 -78 0 -174 34 -256 91 -40 28 -92
62 -115 77 -23 15 -43 32 -43 38 -1 31 115 83 234 105 36 7 66 16 66 20 0 4
-41 17 -91 28 -216 50 -355 172 -502 441 -19 36 -44 74 -55 84 -20 17 -20 17
-27 -51z m39 -421 c-2 -20 -3 -48 -4 -62 l-1 -25 -16 29 c-12 23 -13 34 -4 48
6 10 11 30 11 45 0 19 3 24 9 15 4 -7 7 -30 5 -50z m13 -148 c-3 -3 -12 -4
-19 -1 -8 3 -5 6 6 6 11 1 17 -2 13 -5z m-1683 -125 c3 -13 -3 -6 -13 16 -11
22 -20 47 -20 55 0 17 23 -34 33 -71z m645 -89 c0 -10 -3 -8 -9 5 -12 27 -12
43 0 25 5 -8 9 -22 9 -30z m-609 -5 c0 -5 -5 -3 -10 5 -5 8 -10 20 -10 25 0 6
5 3 10 -5 5 -8 10 -19 10 -25z m19 -60 c0 -5 -4 -3 -9 5 -5 8 -9 22 -9 30 0
16 17 -16 18 -35z m598 3 c-3 -8 -6 -5 -6 6 -1 11 2 17 5 13 3 -3 4 -12 1 -19z
m13 -75 c0 -40 -22 -151 -36 -188 -35 -90 -100 -145 -171 -145 -78 0 -139 79
-148 192 -6 68 5 60 25 -19 12 -48 59 -111 60 -80 0 20 77 137 90 137 5 0 12
-9 15 -20 6 -18 11 -21 30 -20 19 2 37 -34 31 -61 -8 -40 8 -29 35 23 28 54
49 126 49 166 0 17 5 32 10 32 6 0 10 -8 10 -17z m-583 -15 c-3 -8 -6 -5 -6 6
-1 11 2 17 5 13 3 -3 4 -12 1 -19z m103 -283 c0 -5 -5 -3 -10 5 -5 8 -10 20
-10 25 0 6 5 3 10 -5 5 -8 10 -19 10 -25z m19 -60 c0 -5 -4 -3 -9 5 -5 8 -9
22 -9 30 0 16 17 -16 18 -35z m20 -60 c0 -5 -4 -3 -9 5 -5 8 -9 22 -9 30 0 16
17 -16 18 -35z m388 19 c-3 -3 -52 -14 -109 -24 -116 -21 -170 -36 -211 -57
-15 -7 -33 -11 -39 -7 -14 9 185 71 265 83 80 11 102 12 94 5z"/>
<path d="M6707 9633 c-12 -11 4 -162 25 -253 11 -47 38 -125 60 -175 40 -89
55 -135 45 -135 -2 0 -21 7 -40 15 -48 20 -169 19 -238 -1 -71 -21 -152 -55
-162 -68 -15 -22 144 -143 232 -177 25 -9 72 -20 104 -24 54 -7 61 -5 115 28
88 53 118 67 151 67 16 0 33 5 36 10 3 6 6 61 6 124 0 249 -91 458 -245 560
-53 35 -76 43 -89 29z m288 -619 c51 -55 19 -80 -50 -40 -44 26 -57 49 -32 59
29 12 60 5 82 -19z"/>
<path d="M6945 9010 c-3 -5 4 -14 15 -20 16 -8 20 -8 20 4 0 16 -27 29 -35 16z"/>
<path d="M6660 9483 c0 -80 26 -198 58 -260 12 -23 22 -53 22 -66 0 -16 9 -28
26 -36 35 -15 41 -7 25 32 -38 91 -74 199 -97 290 -14 56 -27 104 -30 106 -2
2 -4 -27 -4 -66z"/>
<path d="M4150 9311 c0 -5 5 -13 10 -16 6 -3 10 -2 10 4 0 5 -4 13 -10 16 -5
3 -10 2 -10 -4z"/>
<path d="M7084 9274 c-11 -43 4 -223 25 -308 21 -82 57 -183 73 -200 23 -27
-12 -51 -37 -27 -37 34 -189 42 -290 16 -66 -18 -120 -45 -120 -62 0 -13 136
-112 210 -154 56 -31 151 -59 204 -59 24 0 55 13 98 41 35 23 63 44 63 46 0 3
-13 21 -30 40 -37 41 -37 50 -4 65 24 11 29 9 55 -20 16 -18 29 -42 30 -55 1
-19 2 -19 14 8 21 45 18 212 -4 322 -32 155 -112 285 -213 349 -48 31 -66 30
-74 -2z"/>
<path d="M5270 8974 c-54 -49 -80 -122 -80 -222 1 -42 5 -97 11 -122 6 -25 13
-57 16 -72 7 -37 19 -35 27 2 3 19 12 30 22 30 27 0 48 34 63 98 10 47 17 59
29 55 12 -5 14 -1 8 21 -4 15 -2 65 5 112 6 47 8 96 5 109 -10 39 -56 34 -106
-11z"/>
<path d="M7465 8873 c-4 -10 -10 -89 -13 -175 -5 -167 5 -248 38 -325 23 -52
10 -66 -28 -30 -61 57 -162 82 -302 75 -117 -5 -123 -12 -85 -85 42 -80 117
-153 200 -194 64 -31 77 -34 155 -33 56 1 98 7 123 18 41 18 45 27 21 47 -8 7
-22 26 -31 43 -14 27 -14 31 2 42 23 17 56 4 75 -29 12 -22 13 -32 3 -58 -14
-36 -3 -59 26 -59 14 0 20 21 34 123 32 226 32 271 3 370 -35 117 -58 160
-124 229 -57 60 -84 71 -97 41z"/>
<path d="M5971 8834 c0 -11 3 -14 6 -6 3 7 2 16 -1 19 -3 4 -6 -2 -5 -13z"/>
<path d="M2828 8649 c-24 -14 -23 -39 2 -39 20 0 44 32 33 44 -8 8 -15 7 -35
-5z"/>
<path d="M7280 8647 c0 -14 31 -47 43 -47 16 0 5 40 -12 50 -26 13 -31 13 -31
-3z"/>
<path d="M8190 8600 c0 -5 5 -10 10 -10 6 0 10 5 10 10 0 6 -4 10 -10 10 -5 0
-10 -4 -10 -10z"/>
<path d="M7397 8574 c-10 -13 -27 -24 -38 -24 -37 0 -192 -96 -167 -104 7 -3
54 -6 105 -9 73 -4 97 -9 122 -26 29 -21 36 -20 31 4 -1 6 -9 49 -19 96 -16
86 -16 86 -34 63z"/>
<path d="M7767 8453 c-44 -160 -56 -386 -27 -500 11 -44 -3 -50 -41 -18 -88
74 -220 102 -349 74 -32 -7 -50 -16 -50 -25 0 -20 73 -127 123 -181 46 -50
127 -105 179 -122 48 -16 124 -16 176 0 46 13 49 21 26 67 -20 41 -15 66 14
70 16 3 27 -5 40 -27 19 -35 30 -39 39 -13 3 9 19 47 34 83 46 107 53 155 35
248 -20 106 -54 188 -118 283 -53 78 -73 93 -81 61z"/>
<path d="M7560 8227 c0 -14 31 -47 43 -47 12 0 8 35 -5 48 -16 16 -38 15 -38
-1z"/>
<path d="M6247 7958 c-14 -243 -7 -312 33 -358 11 -12 22 -31 25 -41 4 -11 12
-19 20 -19 7 0 15 -5 17 -11 2 -7 17 -13 33 -15 15 -2 31 -8 35 -14 8 -13 122
-10 133 4 6 8 10 7 14 -1 3 -8 24 -13 53 -13 40 0 50 -4 55 -20 3 -11 13 -20
22 -20 16 0 53 -36 53 -52 0 -4 7 -8 15 -8 8 0 15 -4 15 -10 0 -5 5 -10 11
-10 11 0 39 -24 39 -34 0 -10 171 -176 181 -176 5 0 9 -6 9 -14 0 -8 13 -17
30 -21 16 -4 46 -23 65 -42 91 -91 138 -193 224 -483 12 -41 27 -89 32 -106 5
-17 9 -42 9 -57 0 -14 5 -29 10 -32 6 -4 8 -14 6 -23 -3 -10 -2 -30 3 -47 5
-16 10 -23 11 -15 1 8 6 2 9 -15 4 -16 4 -35 -1 -41 -10 -13 1 -76 12 -69 12
7 19 -86 21 -265 1 -160 9 -363 14 -358 2 2 8 82 14 178 25 387 -30 833 -139
1144 -76 215 -156 371 -286 557 -115 164 -214 288 -305 378 -102 102 -103 103
-174 91 -82 -13 -179 -12 -210 2 -18 8 -37 35 -61 85 -20 40 -37 73 -38 73 -2
0 -6 -55 -9 -122z"/>
<path d="M8037 7903 c-62 -122 -107 -298 -107 -417 0 -35 -3 -65 -6 -69 -3 -3
-30 19 -60 48 -36 37 -81 67 -136 94 -83 40 -201 71 -215 58 -14 -15 50 -160
109 -248 73 -110 173 -169 284 -169 l55 0 -6 48 c-4 26 -9 54 -11 64 -3 9 0
19 6 23 15 9 50 -23 67 -62 7 -18 17 -33 22 -33 5 0 18 17 28 38 11 20 38 73
61 116 23 43 46 104 53 135 14 66 7 185 -15 256 -17 56 -75 157 -93 162 -7 3
-23 -17 -36 -44z"/>
<path d="M7812 7779 c3 -24 33 -48 44 -36 8 8 -23 57 -37 57 -6 0 -9 -10 -7
-21z"/>
<path d="M2302 7778 c-14 -14 -16 -38 -4 -38 12 0 32 23 32 37 0 16 -12 17
-28 1z"/>
<path d="M7854 7706 c-4 -10 -2 -22 4 -28 8 -8 13 -7 18 6 4 10 2 22 -4 28 -8
8 -13 7 -18 -6z"/>
<path d="M1909 7565 c-5 -61 -1 -95 12 -95 11 0 10 83 0 120 -6 20 -9 16 -12
-25z"/>
<path d="M8195 7381 c-78 -121 -114 -235 -116 -375 -1 -47 -6 -86 -11 -86 -6
0 -35 26 -66 58 -32 31 -82 73 -112 93 -91 59 -220 103 -234 80 -4 -6 7 -48
24 -94 94 -244 197 -357 326 -357 27 0 62 -7 78 -15 39 -21 52 -8 21 20 -19
18 -25 34 -25 65 0 34 3 41 17 38 10 -2 24 -17 33 -33 8 -17 16 -32 17 -34 4
-7 124 121 137 147 45 88 48 361 5 486 -13 39 -30 72 -36 74 -7 2 -33 -28 -58
-67z"/>
<path d="M7968 7295 c-10 -11 13 -65 28 -65 8 0 14 6 14 14 0 18 -34 59 -42
51z"/>
<path d="M7996 7175 c4 -8 10 -15 15 -15 5 0 9 7 9 15 0 8 -7 15 -15 15 -9 0
-12 -6 -9 -15z"/>
<path d="M3401 6972 c-1 -46 12 -296 29 -555 45 -709 49 -771 65 -1052 32
-534 35 -594 41 -760 6 -183 21 -255 57 -280 16 -11 38 -13 92 -9 144 12 167
33 186 166 18 128 25 122 -145 113 -130 -6 -144 -5 -150 10 -3 10 -33 450 -66
979 -80 1296 -89 1421 -99 1448 -7 17 -10 2 -10 -60z"/>
<path d="M6372 6980 c0 -19 2 -27 5 -17 2 9 2 25 0 35 -3 9 -5 1 -5 -18z"/>
<path d="M4849 6935 c-6 -5 9 -196 16 -203 3 -3 8 -2 12 2 8 8 32 188 26 199
-5 8 -47 10 -54 2z"/>
<path d="M3756 6891 c-6 -10 28 -194 44 -235 5 -15 17 -60 25 -99 37 -185 247
-1425 286 -1692 6 -38 14 -97 19 -130 5 -33 12 -91 15 -130 8 -103 24 -178 45
-205 19 -25 20 -25 162 -22 181 3 224 20 243 92 15 57 41 260 33 260 -4 0 -8
-13 -8 -29 0 -54 -12 -57 -221 -65 -218 -8 -211 -10 -223 67 -26 166 -220
1294 -278 1607 -62 341 -85 492 -87 568 -1 17 -7 22 -25 22 -14 0 -27 -4 -30
-9z"/>
<path d="M6363 6825 c0 -44 2 -61 4 -37 2 23 2 59 0 80 -2 20 -4 1 -4 -43z"/>
<path d="M1720 6843 c-21 -70 -24 -222 -6 -293 32 -126 102 -248 210 -367 36
-40 62 -60 71 -56 21 8 18 30 -5 43 -28 15 -34 49 -14 95 l16 40 20 -25 c16
-20 19 -34 14 -67 -3 -24 -2 -43 3 -43 41 0 145 46 185 81 73 64 138 224 171
418 l7 44 -40 -5 c-99 -14 -224 -115 -296 -240 -21 -38 -42 -68 -47 -68 -4 0
-11 17 -14 38 -12 73 -57 202 -93 262 -40 67 -140 180 -159 180 -7 0 -17 -17
-23 -37z"/>
<path d="M8312 6785 c-64 -99 -146 -254 -177 -337 -10 -27 -22 -48 -26 -48 -5
0 -23 28 -40 63 -18 34 -48 81 -67 105 -53 64 -159 121 -226 122 -27 0 -28 -1
-21 -37 12 -67 74 -244 110 -312 56 -106 86 -137 141 -145 47 -6 100 -32 141
-69 28 -25 30 -24 135 107 115 143 157 243 158 371 0 113 -31 264 -56 272 -6
2 -38 -39 -72 -92z m-135 -543 c8 -32 -13 -74 -35 -70 -13 3 -17 14 -17 53 -1
61 13 85 32 58 8 -10 16 -28 20 -41z"/>
<path d="M8140 6235 c0 -8 5 -15 10 -15 6 0 10 7 10 15 0 8 -4 15 -10 15 -5 0
-10 -7 -10 -15z"/>
<path d="M6722 6825 c0 -16 2 -22 5 -12 2 9 2 23 0 30 -3 6 -5 -1 -5 -18z"/>
<path d="M6856 6718 c5 -112 29 -228 45 -228 5 0 9 -6 9 -14 0 -22 55 -72 101
-91 29 -12 50 -29 60 -49 9 -17 22 -31 29 -31 7 0 15 -11 17 -25 2 -13 7 -27
11 -30 12 -9 32 -49 32 -66 0 -8 7 -22 15 -30 8 -8 17 -31 20 -52 4 -20 10
-46 15 -57 25 -56 40 -122 46 -197 3 -46 8 -92 9 -103 2 -11 4 -69 5 -130 2
-175 18 -93 26 132 7 203 -2 353 -32 523 -21 121 -78 296 -122 371 l-37 64
-95 32 c-68 23 -103 41 -122 63 -15 16 -30 30 -33 30 -3 0 -3 -51 1 -112z"/>
<path d="M3265 6773 c-36 -40 -46 -45 -98 -52 -69 -9 -94 -33 -156 -151 -78
-150 -116 -321 -127 -585 -6 -164 -1 -223 9 -100 9 103 47 259 67 275 3 3 12
21 20 40 23 59 101 166 113 154 3 -3 12 3 19 15 7 12 19 21 26 21 7 0 24 11
37 24 13 13 27 26 32 27 14 7 60 112 71 164 14 64 35 206 30 210 -2 1 -21 -17
-43 -42z"/>
<path d="M8095 6770 c-7 -12 2 -30 16 -30 12 0 12 27 0 35 -5 3 -12 1 -16 -5z"/>
<path d="M5684 6698 c4 -18 16 -76 26 -128 11 -52 30 -144 44 -205 13 -60 47
-218 75 -350 29 -132 69 -321 91 -420 38 -173 81 -391 115 -580 9 -49 23 -122
30 -160 8 -39 21 -126 30 -195 19 -153 33 -229 46 -256 18 -36 68 -57 159 -66
233 -22 214 -23 241 3 35 33 52 80 53 144 0 42 4 55 16 56 8 1 105 3 215 4
110 2 208 4 217 5 15 1 17 18 20 128 2 89 -1 131 -9 141 -10 12 -49 14 -217
12 -133 -2 -206 1 -210 8 -4 6 -14 3 -26 -9 -24 -24 -48 -26 -57 -4 -7 20 26
83 52 96 11 5 29 20 40 33 11 12 68 63 127 114 160 136 229 226 275 358 23 68
23 250 -1 318 -52 148 -153 235 -299 255 -32 5 -69 5 -80 0 -12 -4 -55 -13
-96 -19 -41 -6 -102 -25 -135 -41 -34 -16 -73 -33 -87 -39 -18 -6 -28 -19 -33
-41 -8 -40 -8 -270 0 -270 3 0 26 20 50 45 51 51 147 100 215 109 38 6 55 2
98 -19 72 -37 91 -70 91 -165 -1 -119 -32 -165 -265 -403 -140 -141 -175 -194
-214 -321 -12 -37 -21 -93 -21 -123 0 -70 -12 -93 -50 -93 -41 0 -54 19 -69
96 -51 280 -340 1610 -386 1779 -8 28 -17 92 -20 143 -7 90 -8 92 -32 92 -23
0 -25 -3 -19 -32z"/>
<path d="M8459 6512 c-9 -26 -29 -73 -43 -106 -23 -50 -24 -57 -9 -51 10 4 27
8 38 9 17 1 21 10 27 71 3 39 9 82 12 98 10 45 -8 30 -25 -21z"/>
<path d="M6703 6425 c0 -27 2 -38 4 -22 2 15 2 37 0 50 -2 12 -4 0 -4 -28z"/>
<path d="M8355 6263 c-66 -79 -129 -184 -181 -300 -33 -75 -64 -107 -64 -68 0
34 -58 133 -111 189 -62 66 -192 146 -204 125 -20 -32 29 -256 78 -354 54
-109 114 -167 205 -199 l44 -16 -7 38 c-12 72 28 122 53 67 18 -39 14 -83 -9
-106 -21 -21 -22 -54 -1 -54 22 0 163 138 213 209 71 101 94 182 92 321 -1
113 -19 205 -40 212 -6 2 -37 -26 -68 -64z"/>
<path d="M1987 6263 c-10 -10 -8 -51 2 -58 13 -7 34 33 27 51 -6 15 -18 18
-29 7z"/>
<path d="M7744 6040 c5 -150 13 -210 27 -210 10 0 86 -80 150 -160 51 -63 129
-211 129 -244 0 -9 36 20 88 70 99 98 269 244 284 244 5 0 18 -10 29 -22 24
-30 26 -153 3 -218 -31 -90 -89 -185 -150 -246 -57 -57 -265 -204 -289 -204
-6 0 -33 25 -59 55 -26 31 -59 58 -74 61 -37 9 -50 21 -74 67 -28 56 -44 115
-64 240 -24 146 -39 127 -29 -38 l7 -126 45 -60 c91 -125 153 -256 153 -326 0
-22 5 -20 49 29 64 71 175 154 281 212 78 44 85 46 97 30 22 -30 14 -127 -17
-209 -51 -136 -134 -254 -225 -323 -36 -28 -62 -53 -57 -56 5 -3 37 6 72 20
48 19 65 22 76 13 21 -17 18 -29 -28 -136 -74 -174 -131 -256 -215 -310 -35
-22 -53 -40 -51 -51 2 -12 -5 -18 -22 -20 -81 -10 -264 -95 -348 -161 -63 -50
-76 -52 -65 -8 14 57 8 208 -11 267 -30 91 -78 190 -93 190 -21 0 -71 -87 -96
-165 -18 -58 -22 -93 -22 -205 1 -146 16 -210 70 -292 14 -20 25 -45 25 -53 0
-25 28 -29 113 -15 145 23 254 75 361 170 83 73 162 232 137 273 -17 26 -3 37
15 12 18 -24 13 -48 -27 -132 -66 -139 -178 -235 -351 -301 -54 -20 -98 -40
-98 -44 0 -5 26 -8 59 -8 76 0 119 -16 127 -45 9 -36 -1 -55 -66 -124 -33 -35
-60 -70 -60 -77 0 -15 24 -21 120 -30 41 -3 82 -10 91 -15 10 -5 21 -3 28 4
10 9 14 8 22 -5 11 -20 39 -13 39 11 1 14 2 14 11 -1 15 -27 37 -22 44 11 3
15 14 37 24 47 10 11 21 32 24 46 4 15 13 33 21 41 19 18 46 84 42 100 -1 6
-1 9 1 5 10 -18 23 -6 23 22 0 17 5 30 10 30 6 0 8 11 4 25 -4 18 -1 27 11 31
11 5 15 14 11 29 -4 16 4 30 34 56 22 19 40 42 40 51 0 9 5 20 10 23 6 3 10
11 10 16 0 6 -4 7 -10 4 -16 -10 -12 17 5 35 27 30 55 120 44 141 -6 13 -6 19
1 19 5 0 10 7 10 16 0 13 3 14 14 4 15 -11 16 0 7 75 -1 6 -6 3 -11 -5 -8 -12
-10 -11 -10 6 0 12 7 27 15 34 8 7 15 19 15 27 0 8 4 12 9 8 5 -3 9 8 9 25 -1
17 4 36 10 42 7 7 12 29 12 50 0 21 3 38 8 38 4 0 8 14 9 32 1 17 8 35 14 39
6 4 12 25 13 47 0 29 4 38 12 31 8 -6 14 -4 18 7 4 10 3 20 -2 23 -15 10 -9
49 6 43 11 -4 13 0 7 19 -5 13 -8 29 -7 34 1 6 4 56 8 112 4 56 10 100 14 98
12 -8 19 48 9 67 -7 14 -6 18 5 18 9 0 13 7 11 20 -2 12 2 20 9 20 8 0 17 27
25 73 7 39 16 79 19 87 5 14 8 75 16 400 2 80 6 165 10 190 11 95 17 255 8
245 -5 -5 -24 -47 -42 -93 -18 -46 -50 -110 -71 -143 -48 -74 -215 -241 -236
-237 -9 2 -21 18 -28 37 -9 28 -20 37 -63 53 -76 28 -154 104 -197 191 -19 40
-51 128 -71 197 -20 69 -40 132 -45 140 -6 9 -8 -39 -5 -130z m533 -1682 c-3
-8 -6 -5 -6 6 -1 11 2 17 5 13 3 -3 4 -12 1 -19z m-841 -564 c5 -29 2 -40 -17
-60 -27 -29 -35 -30 -49 -4 -9 16 -6 29 11 60 28 49 46 51 55 4z"/>
<path d="M7389 3779 c-16 -31 5 -50 26 -23 8 10 15 25 15 32 0 20 -28 14 -41
-9z"/>
<path d="M2564 6098 c-13 -20 -9 -585 4 -688 7 -52 14 -120 17 -150 4 -59 14
-143 20 -175 17 -93 38 -178 49 -201 9 -15 12 -42 9 -63 -4 -28 -2 -33 6 -21
9 11 10 5 7 -29 -6 -49 1 -71 16 -50 6 9 7 -7 3 -45 -5 -39 -3 -56 4 -52 5 4
7 14 4 24 -4 13 -3 14 6 6 7 -6 13 -25 13 -43 1 -17 4 -31 8 -31 7 0 22 -50
24 -79 1 -8 9 -17 18 -20 34 -12 101 -128 127 -221 7 -25 17 -55 22 -68 5 -13
9 -34 9 -47 0 -34 10 -55 26 -55 8 0 14 -4 14 -10 0 -5 8 -10 18 -10 31 0 136
-104 169 -167 29 -54 64 -150 79 -218 l7 -30 15 38 c22 56 55 50 140 -28 45
-40 72 -54 105 -55 22 0 27 4 27 23 0 13 -12 34 -26 48 -15 13 -52 58 -82 99
-31 41 -73 95 -94 120 -46 53 -147 196 -263 370 -83 125 -214 375 -279 532
-130 317 -205 734 -207 1146 0 89 -2 162 -4 162 -2 0 -7 -5 -11 -12z"/>
<path d="M2742 5910 c0 -14 2 -19 5 -12 2 6 2 18 0 25 -3 6 -5 1 -5 -13z"/>
<path d="M2733 5623 c5 -222 29 -411 72 -568 9 -33 21 -73 25 -90 11 -40 11
-3 1 55 -53 295 -81 540 -81 713 0 72 -4 107 -11 107 -8 0 -10 -61 -6 -217z"/>
<path d="M2260 5690 c-74 -96 -122 -186 -151 -280 -21 -70 -34 -85 -46 -52
-27 73 -154 210 -274 295 -88 62 -99 62 -99 -5 0 -233 118 -399 380 -539 25
-13 48 -28 51 -33 4 -5 12 -5 18 -2 8 5 1 17 -19 36 -25 23 -30 36 -30 73 0
25 5 49 12 53 16 10 37 -23 45 -68 6 -40 22 -48 43 -23 6 7 36 28 67 45 62 35
73 55 96 170 30 148 30 296 1 393 -10 32 -31 17 -94 -63z"/>
<path d="M7775 5759 c-4 -6 -8 -81 -8 -167 -2 -171 9 -241 50 -334 21 -48 31
-59 62 -69 21 -7 57 -34 88 -66 l51 -55 46 31 c24 17 48 31 52 31 16 0 147
106 197 160 67 72 104 145 118 231 13 80 3 179 -18 179 -39 0 -260 -211 -328
-312 -20 -32 -41 -55 -45 -53 -4 3 -11 25 -15 50 -17 117 -73 222 -173 328
-57 59 -66 65 -77 46z m275 -535 c15 -37 12 -59 -9 -85 -16 -20 -21 -21 -35
-10 -20 17 -20 41 -2 86 18 42 33 45 46 9z"/>
<path d="M8016 5194 c-3 -9 -6 -23 -6 -31 0 -13 3 -13 15 -3 16 13 21 50 6 50
-5 0 -12 -7 -15 -16z"/>
<path d="M1987 5733 c-13 -13 -7 -53 8 -53 10 0 15 10 15 30 0 29 -9 38 -23
23z"/>
<path d="M8132 5713 c4 -39 28 -42 28 -4 0 21 -5 31 -16 31 -11 0 -14 -8 -12
-27z"/>
<path d="M1985 5620 c3 -5 10 -10 16 -10 5 0 9 5 9 10 0 6 -7 10 -16 10 -8 0
-12 -4 -9 -10z"/>
<path d="M7420 5500 c0 -69 -11 -158 -41 -337 -10 -62 -19 -120 -18 -130 2
-32 37 116 49 205 6 48 16 114 21 148 12 78 11 145 -1 164 -7 11 -10 -4 -10
-50z"/>
<path d="M7577 5523 c-4 -3 -7 -25 -7 -48 0 -23 -4 -55 -9 -71 -5 -16 -14 -60
-21 -99 -17 -98 -74 -314 -108 -415 -40 -117 -74 -195 -143 -334 -119 -235
-236 -404 -512 -734 -111 -134 -166 -207 -159 -214 20 -20 89 10 139 63 26 28
55 55 64 60 24 12 69 -25 70 -59 1 -20 2 -22 6 -7 2 11 9 31 15 45 6 14 14 34
18 45 5 11 31 67 59 125 60 123 121 214 145 218 20 4 56 -25 56 -44 0 -7 5
-16 12 -20 8 -5 9 0 5 17 -7 24 5 107 25 184 20 72 77 182 111 212 19 16 34
36 35 44 4 41 36 138 44 133 5 -4 9 -56 7 -118 -2 -103 1 -121 36 -241 29 -98
38 -149 39 -207 l1 -77 30 19 c65 39 152 80 183 86 18 4 42 18 53 32 13 17 39
31 72 40 135 34 237 147 306 338 34 93 38 124 17 124 -47 0 -181 -63 -318
-151 -61 -38 -117 -68 -123 -65 -8 3 -14 38 -17 103 -3 54 -13 121 -23 149
-18 53 -102 185 -122 191 -27 9 -65 -118 -83 -273 -11 -100 0 -232 26 -292 12
-29 86 -121 104 -130 3 -1 16 25 29 58 13 33 27 60 32 60 13 0 21 -58 10 -79
-17 -30 -14 -38 17 -46 25 -7 23 -8 -26 -21 l-53 -14 -52 56 c-29 31 -57 67
-64 79 -23 42 -52 165 -58 247 -3 46 -8 112 -11 148 -6 60 -5 63 11 50 16 -14
17 -11 11 40 -5 38 -4 50 3 40 7 -10 10 -4 9 26 0 23 3 50 6 62 9 28 20 73 54
232 31 143 71 440 59 440 -2 0 -7 -3 -10 -7z"/>
<path d="M7263 5415 c0 -27 2 -38 4 -22 2 15 2 37 0 50 -2 12 -4 0 -4 -28z"/>
<path d="M4891 5324 c0 -11 3 -14 6 -6 3 7 2 16 -1 19 -3 4 -6 -2 -5 -13z"/>
<path d="M6299 5272 c-4 -89 -2 -116 10 -120 10 -3 11 10 6 64 -8 71 -14 94
-16 56z"/>
<path d="M7669 5265 c-6 -16 -14 -91 -17 -165 -4 -116 -1 -148 17 -220 28
-113 69 -193 136 -263 47 -49 58 -56 74 -47 11 5 27 10 36 10 30 0 140 59 197
107 130 108 195 235 223 436 6 44 5 47 -16 47 -29 0 -146 -68 -225 -131 -35
-27 -88 -84 -119 -125 -46 -61 -59 -73 -71 -63 -8 6 -14 30 -14 53 0 106 -57
231 -146 325 l-62 66 -13 -30z m237 -571 c5 -29 2 -40 -14 -57 -17 -17 -23
-18 -36 -7 -19 15 -20 30 -3 61 31 60 42 60 53 3z"/>
<path d="M7867 4693 c-13 -12 -7 -43 8 -43 9 0 15 9 15 25 0 24 -10 32 -23 18z"/>
<path d="M4891 4964 c0 -361 10 -497 36 -532 19 -26 25 -27 118 -30 68 -2 102
1 113 10 27 23 53 96 59 168 l6 70 -145 0 c-104 0 -148 4 -156 13 -6 7 -13
126 -17 292 -4 154 -9 282 -11 284 -2 2 -4 -121 -3 -275z"/>
<path d="M2110 5171 c0 -17 5 -31 10 -31 6 0 10 11 10 24 0 14 -4 28 -10 31
-6 4 -10 -7 -10 -24z"/>
<path d="M7607 5023 c-4 -3 -7 -37 -7 -75 0 -63 5 -78 55 -181 53 -108 84
-214 85 -284 0 -18 4 -33 10 -33 15 0 142 68 170 91 l25 21 -35 -6 c-19 -3
-47 -9 -62 -12 -23 -5 -28 -3 -28 13 0 10 -20 39 -43 65 -24 25 -58 75 -75
110 -33 70 -72 200 -72 245 0 32 -13 57 -23 46z"/>
<path d="M1597 5000 c3 -11 7 -20 9 -20 2 0 4 9 4 20 0 11 -4 20 -9 20 -5 0
-7 -9 -4 -20z"/>
<path d="M7346 4995 c-3 -9 -6 -26 -5 -38 1 -16 4 -12 10 12 10 34 6 55 -5 26z"/>
<path d="M4390 4970 c0 -11 5 -20 10 -20 6 0 10 9 10 20 0 11 -4 20 -10 20 -5
0 -10 -9 -10 -20z"/>
<path d="M6611 4874 c0 -11 3 -14 6 -6 3 7 2 16 -1 19 -3 4 -6 -2 -5 -13z"/>
<path d="M2548 4813 c-71 -75 -106 -183 -115 -355 -6 -117 -14 -129 -50 -79
-28 37 -134 116 -203 151 -87 43 -202 82 -213 71 -12 -12 14 -93 67 -201 72
-150 158 -211 376 -269 87 -24 116 -28 122 -18 19 29 4 51 -23 34 -24 -15 -45
11 -52 68 -10 68 31 75 59 10 8 -19 18 -35 22 -35 19 0 93 89 107 130 25 71
21 235 -11 388 -14 70 -28 130 -31 135 -8 13 -19 7 -55 -30z"/>
<path d="M5345 4660 c4 -249 11 -262 150 -266 87 -3 97 -1 123 21 22 18 31 38
40 88 7 35 12 80 12 99 0 33 -2 36 -37 42 -21 3 -88 6 -150 6 -78 0 -114 4
-120 13 -4 6 -11 48 -14 92 -4 47 -6 9 -4 -95z"/>
<path d="M4633 4780 c0 -25 2 -35 4 -22 2 12 2 32 0 45 -2 12 -4 2 -4 -23z"/>
<path d="M1680 4695 c0 -8 5 -15 10 -15 6 0 10 7 10 15 0 8 -4 15 -10 15 -5 0
-10 -7 -10 -15z"/>
<path d="M2761 4398 c-94 -239 -110 -309 -92 -411 7 -38 7 -65 1 -71 -5 -5
-32 13 -70 46 -102 93 -238 151 -351 151 -73 0 -75 -6 -31 -86 61 -113 149
-244 174 -260 27 -18 153 -45 251 -54 l70 -6 -6 24 c-4 13 -10 33 -13 44 -2
11 1 28 9 39 11 15 17 17 35 7 12 -6 29 -25 37 -41 18 -34 31 -38 40 -12 3 11
24 43 46 73 l41 54 -5 130 c-6 148 -24 229 -73 328 -36 71 -49 80 -63 45z"/>
<path d="M2676 4325 c-10 -25 -40 -70 -68 -100 -44 -49 -50 -59 -44 -88 8 -45
-5 -61 -43 -54 -29 6 -31 5 -21 -12 5 -11 26 -25 45 -31 20 -6 48 -22 63 -35
l27 -23 1 77 c0 55 9 107 33 189 34 117 37 157 7 77z"/>
<path d="M2476 4232 c-8 -13 10 -62 24 -62 14 0 12 33 -3 55 -9 11 -16 14 -21
7z"/>
<path d="M7228 3880 c-3 -8 -3 -46 -1 -85 4 -46 0 -91 -11 -131 -22 -83 -21
-90 7 -72 12 8 40 18 62 22 80 14 95 18 95 27 0 5 -9 9 -20 9 -11 0 -23 8 -26
18 -4 9 -23 53 -44 97 -21 44 -42 91 -47 105 -7 18 -11 20 -15 10z"/>
<path d="M2714 3796 c-7 -19 23 -69 36 -61 16 10 11 41 -10 60 -18 16 -20 16
-26 1z"/>
<path d="M2777 3723 c-12 -11 -8 -23 8 -23 8 0 15 7 15 15 0 16 -12 20 -23 8z"/>
<path d="M1990 3680 c0 -5 9 -10 20 -10 11 0 20 5 20 10 0 6 -9 10 -20 10 -11
0 -20 -4 -20 -10z"/>
<path d="M2070 3510 c0 -5 5 -10 10 -10 6 0 10 5 10 10 0 6 -4 10 -10 10 -5 0
-10 -4 -10 -10z"/>
<path d="M2090 3470 c0 -5 5 -10 10 -10 6 0 10 5 10 10 0 6 -4 10 -10 10 -5 0
-10 -4 -10 -10z"/>
<path d="M1031 2284 c0 -11 3 -14 6 -6 3 7 2 16 -1 19 -3 4 -6 -2 -5 -13z"/>
<path d="M2250 4686 c0 -17 5 -26 16 -26 10 0 14 7 12 22 -5 32 -28 35 -28 4z"/>
<path d="M5011 3166 c-8 -9 -9 -39 -4 -97 7 -78 10 -84 31 -87 44 -6 62 23 62
99 0 59 -3 70 -22 83 -28 20 -52 20 -67 2z"/>
<path d="M5779 3144 c-10 -12 -16 -67 -21 -193 -5 -152 -4 -178 9 -193 22 -25
50 -22 67 5 20 31 34 360 16 382 -16 20 -54 19 -71 -1z"/>
<path d="M6146 3121 c-4 -5 -11 -81 -16 -168 -6 -87 -12 -169 -14 -182 -2 -14
-2 -31 1 -38 7 -18 68 -16 83 2 15 18 41 331 29 361 -10 28 -71 46 -83 25z"/>
<path d="M3728 2950 c-1 -44 -2 -92 -2 -107 -1 -21 4 -29 19 -31 45 -5 48 9
24 117 -13 55 -27 101 -31 101 -4 0 -9 -36 -10 -80z"/>
<path d="M6815 2978 c-3 -35 -8 -75 -11 -90 -5 -23 -1 -30 22 -38 57 -22 82 8
86 106 3 63 -13 84 -63 84 -26 0 -27 -3 -34 -62z"/>
</g>
</svg>
